<svg width="268" height="144" viewBox="0 0 268 144" fill="none" xmlns="http://www.w3.org/2000/svg">
<path d="M3.2 14L0.112 6.176H2.16L4.336 12.176H3.968L6.176 6.176H7.584L9.76 12.176H9.424L11.6 6.176H13.536L10.464 14H8.72L6.352 7.744H7.264L4.944 14H3.2ZM17.4813 14L14.3933 6.176H16.4413L18.6173 12.176H18.2493L20.4573 6.176H21.8653L24.0413 12.176H23.7053L25.8813 6.176H27.8173L24.7453 14H23.0013L20.6333 7.744H21.5453L19.2253 14H17.4813ZM31.7625 14L28.6745 6.176H30.7225L32.8985 12.176H32.5305L34.7385 6.176H36.1465L38.3225 12.176H37.9865L40.1625 6.176H42.0985L39.0265 14H37.2825L34.9145 7.744H35.8265L33.5065 14H31.7625ZM42.3015 14V11.776H44.5415V14H42.3015ZM46.4463 14V6.176H48.3983V8.064H48.2383C48.3876 7.424 48.6809 6.93867 49.1183 6.608C49.5556 6.26667 50.1369 6.06933 50.8623 6.016L51.4703 5.968L51.5983 7.664L50.4463 7.776C49.7956 7.84 49.3049 8.04267 48.9743 8.384C48.6436 8.71467 48.4783 9.184 48.4783 9.792V14H46.4463ZM56.1549 14.16C55.3442 14.16 54.6402 13.9947 54.0429 13.664C53.4455 13.3333 52.9815 12.864 52.6509 12.256C52.3202 11.6373 52.1549 10.912 52.1549 10.08C52.1549 9.248 52.3202 8.528 52.6509 7.92C52.9815 7.312 53.4455 6.84267 54.0429 6.512C54.6402 6.18133 55.3442 6.016 56.1549 6.016C56.9655 6.016 57.6695 6.18133 58.2669 6.512C58.8642 6.84267 59.3282 7.312 59.6589 7.92C59.9895 8.528 60.1549 9.248 60.1549 10.08C60.1549 10.912 59.9895 11.6373 59.6589 12.256C59.3282 12.864 58.8642 13.3333 58.2669 13.664C57.6695 13.9947 56.9655 14.16 56.1549 14.16ZM56.1549 12.64C56.7522 12.64 57.2322 12.4267 57.5949 12C57.9575 11.5627 58.1389 10.9227 58.1389 10.08C58.1389 9.22667 57.9575 8.592 57.5949 8.176C57.2322 7.74933 56.7522 7.536 56.1549 7.536C55.5575 7.536 55.0775 7.74933 54.7149 8.176C54.3522 8.592 54.1709 9.22667 54.1709 10.08C54.1709 10.9227 54.3522 11.5627 54.7149 12C55.0775 12.4267 55.5575 12.64 56.1549 12.64ZM65.4216 14.16C64.6003 14.16 63.8856 13.9947 63.2776 13.664C62.6696 13.3227 62.2003 12.8427 61.8696 12.224C61.539 11.6053 61.3736 10.88 61.3736 10.048C61.3736 9.216 61.539 8.50133 61.8696 7.904C62.2003 7.296 62.6696 6.832 63.2776 6.512C63.8856 6.18133 64.6003 6.016 65.4216 6.016C65.923 6.016 66.419 6.096 66.9096 6.256C67.4003 6.416 67.8056 6.64 68.1256 6.928L67.5336 8.32C67.2563 8.07467 66.9416 7.888 66.5896 7.76C66.2483 7.632 65.9176 7.568 65.5976 7.568C64.9043 7.568 64.3656 7.78667 63.9816 8.224C63.6083 8.65067 63.4216 9.264 63.4216 10.064C63.4216 10.8533 63.6083 11.4773 63.9816 11.936C64.3656 12.384 64.9043 12.608 65.5976 12.608C65.907 12.608 66.2376 12.544 66.5896 12.416C66.9416 12.288 67.2563 12.096 67.5336 11.84L68.1256 13.248C67.8056 13.5253 67.395 13.7493 66.8936 13.92C66.403 14.08 65.9123 14.16 65.4216 14.16ZM69.3525 14V2.72H71.3525V9.504H71.3845L74.5365 6.176H76.9525L73.0165 10.336V9.504L77.1765 14H74.7285L71.3845 10.512H71.3525V14H69.3525ZM78.3534 16.88L79.9854 13.28V14.112L76.5454 6.176H78.6734L81.1054 12.24H80.6254L83.1054 6.176H85.1214L80.4174 16.88H78.3534ZM86.0713 14V6.176H88.0233V8.064H87.8633C88.0126 7.424 88.3059 6.93867 88.7433 6.608C89.1806 6.26667 89.7619 6.06933 90.4873 6.016L91.0953 5.968L91.2233 7.664L90.0713 7.776C89.4206 7.84 88.9299 8.04267 88.5993 8.384C88.2686 8.71467 88.1033 9.184 88.1033 9.792V14H86.0713ZM92.2089 4.496V2.544H94.4489V4.496H92.2089ZM92.3369 14V6.176H94.3369V14H92.3369ZM99.423 14.16C98.7403 14.16 98.1377 13.9947 97.615 13.664C97.103 13.3333 96.703 12.864 96.415 12.256C96.127 11.6373 95.983 10.912 95.983 10.08C95.983 9.23733 96.127 8.51733 96.415 7.92C96.703 7.312 97.103 6.84267 97.615 6.512C98.1377 6.18133 98.7403 6.016 99.423 6.016C100.074 6.016 100.639 6.176 101.119 6.496C101.61 6.816 101.94 7.23733 102.111 7.76H101.935V2.72H103.935V14H101.983V12.336H102.127C101.967 12.8907 101.642 13.3333 101.151 13.664C100.66 13.9947 100.084 14.16 99.423 14.16ZM99.983 12.64C100.58 12.64 101.06 12.4267 101.423 12C101.786 11.5627 101.967 10.9227 101.967 10.08C101.967 9.22667 101.786 8.592 101.423 8.176C101.06 7.74933 100.58 7.536 99.983 7.536C99.3857 7.536 98.9057 7.74933 98.543 8.176C98.1803 8.592 97.999 9.22667 97.999 10.08C97.999 10.9227 98.1803 11.5627 98.543 12C98.9057 12.4267 99.3857 12.64 99.983 12.64ZM109.865 14.16C108.979 14.16 108.217 13.9947 107.577 13.664C106.937 13.3333 106.441 12.864 106.089 12.256C105.747 11.648 105.577 10.928 105.577 10.096C105.577 9.28533 105.742 8.576 106.073 7.968C106.414 7.36 106.878 6.88533 107.465 6.544C108.062 6.192 108.739 6.016 109.497 6.016C110.243 6.016 110.883 6.176 111.417 6.496C111.95 6.816 112.361 7.26933 112.649 7.856C112.947 8.44267 113.097 9.14133 113.097 9.952V10.544H107.193V9.392H111.689L111.433 9.632C111.433 8.90667 111.273 8.352 110.953 7.968C110.633 7.57333 110.174 7.376 109.577 7.376C109.129 7.376 108.745 7.48267 108.425 7.696C108.115 7.89867 107.875 8.192 107.705 8.576C107.545 8.94933 107.465 9.39733 107.465 9.92V10.032C107.465 10.6187 107.555 11.104 107.737 11.488C107.918 11.872 108.19 12.16 108.553 12.352C108.915 12.544 109.363 12.64 109.897 12.64C110.334 12.64 110.771 12.576 111.209 12.448C111.646 12.3093 112.046 12.096 112.409 11.808L112.969 13.152C112.595 13.4613 112.126 13.7067 111.561 13.888C110.995 14.0693 110.43 14.16 109.865 14.16ZM117.545 14.16C117.107 14.16 116.681 14.1227 116.265 14.048C115.859 13.9733 115.486 13.872 115.145 13.744C114.803 13.6053 114.505 13.4347 114.249 13.232L114.761 11.92C115.027 12.0907 115.315 12.24 115.625 12.368C115.934 12.496 116.254 12.592 116.585 12.656C116.915 12.72 117.241 12.752 117.561 12.752C118.073 12.752 118.451 12.6667 118.697 12.496C118.953 12.3147 119.081 12.08 119.081 11.792C119.081 11.5467 118.995 11.36 118.825 11.232C118.665 11.0933 118.419 10.992 118.089 10.928L116.489 10.624C115.827 10.496 115.321 10.256 114.969 9.904C114.627 9.54133 114.457 9.07733 114.457 8.512C114.457 8 114.595 7.55733 114.873 7.184C115.161 6.81067 115.555 6.52267 116.057 6.32C116.558 6.11733 117.134 6.016 117.785 6.016C118.158 6.016 118.521 6.05333 118.873 6.128C119.225 6.192 119.555 6.29333 119.865 6.432C120.185 6.56 120.462 6.73067 120.697 6.944L120.153 8.256C119.95 8.08533 119.715 7.94133 119.449 7.824C119.182 7.696 118.905 7.6 118.617 7.536C118.339 7.46133 118.067 7.424 117.801 7.424C117.278 7.424 116.889 7.51467 116.633 7.696C116.387 7.87733 116.265 8.11733 116.265 8.416C116.265 8.64 116.339 8.82667 116.489 8.976C116.638 9.12533 116.867 9.22667 117.177 9.28L118.777 9.584C119.47 9.712 119.993 9.94667 120.345 10.288C120.707 10.6293 120.889 11.088 120.889 11.664C120.889 12.1867 120.75 12.6347 120.473 13.008C120.195 13.3813 119.806 13.6693 119.305 13.872C118.803 14.064 118.217 14.16 117.545 14.16ZM122.239 14V11.776H124.479V14H122.239ZM129.703 14.16C128.882 14.16 128.167 13.9947 127.559 13.664C126.951 13.3227 126.482 12.8427 126.151 12.224C125.82 11.6053 125.655 10.88 125.655 10.048C125.655 9.216 125.82 8.50133 126.151 7.904C126.482 7.296 126.951 6.832 127.559 6.512C128.167 6.18133 128.882 6.016 129.703 6.016C130.204 6.016 130.7 6.096 131.191 6.256C131.682 6.416 132.087 6.64 132.407 6.928L131.815 8.32C131.538 8.07467 131.223 7.888 130.871 7.76C130.53 7.632 130.199 7.568 129.879 7.568C129.186 7.568 128.647 7.78667 128.263 8.224C127.89 8.65067 127.703 9.264 127.703 10.064C127.703 10.8533 127.89 11.4773 128.263 11.936C128.647 12.384 129.186 12.608 129.879 12.608C130.188 12.608 130.519 12.544 130.871 12.416C131.223 12.288 131.538 12.096 131.815 11.84L132.407 13.248C132.087 13.5253 131.676 13.7493 131.175 13.92C130.684 14.08 130.194 14.16 129.703 14.16ZM137.046 14.16C136.235 14.16 135.531 13.9947 134.934 13.664C134.336 13.3333 133.872 12.864 133.542 12.256C133.211 11.6373 133.046 10.912 133.046 10.08C133.046 9.248 133.211 8.528 133.542 7.92C133.872 7.312 134.336 6.84267 134.934 6.512C135.531 6.18133 136.235 6.016 137.046 6.016C137.856 6.016 138.56 6.18133 139.158 6.512C139.755 6.84267 140.219 7.312 140.55 7.92C140.88 8.528 141.046 9.248 141.046 10.08C141.046 10.912 140.88 11.6373 140.55 12.256C140.219 12.864 139.755 13.3333 139.158 13.664C138.56 13.9947 137.856 14.16 137.046 14.16ZM137.046 12.64C137.643 12.64 138.123 12.4267 138.486 12C138.848 11.5627 139.03 10.9227 139.03 10.08C139.03 9.22667 138.848 8.592 138.486 8.176C138.123 7.74933 137.643 7.536 137.046 7.536C136.448 7.536 135.968 7.74933 135.606 8.176C135.243 8.592 135.062 9.22667 135.062 10.08C135.062 10.9227 135.243 11.5627 135.606 12C135.968 12.4267 136.448 12.64 137.046 12.64ZM142.728 14V6.176H144.68V7.744H144.504C144.643 7.38133 144.835 7.072 145.08 6.816C145.326 6.56 145.619 6.36267 145.96 6.224C146.302 6.08533 146.68 6.016 147.096 6.016C147.726 6.016 148.243 6.16533 148.648 6.464C149.054 6.76267 149.336 7.22133 149.496 7.84H149.272C149.486 7.27467 149.838 6.832 150.328 6.512C150.819 6.18133 151.384 6.016 152.024 6.016C152.622 6.016 153.112 6.13333 153.496 6.368C153.891 6.60267 154.184 6.96 154.376 7.44C154.568 7.90933 154.664 8.50667 154.664 9.232V14H152.664V9.312C152.664 8.71467 152.563 8.27733 152.36 8C152.168 7.72267 151.838 7.584 151.368 7.584C151.027 7.584 150.728 7.66933 150.472 7.84C150.216 8 150.019 8.23467 149.88 8.544C149.752 8.85333 149.688 9.22667 149.688 9.664V14H147.688V9.312C147.688 8.71467 147.587 8.27733 147.384 8C147.192 7.72267 146.867 7.584 146.408 7.584C146.056 7.584 145.752 7.66933 145.496 7.84C145.251 8 145.059 8.23467 144.92 8.544C144.792 8.85333 144.728 9.22667 144.728 9.664V14H142.728Z" fill="#004167"/>
<path d="M4.8 59.16C3.488 59.16 2.45867 58.8773 1.712 58.312C0.976 57.7467 0.608 56.9627 0.608 55.96C0.608 55.4267 0.714667 54.9573 0.928 54.552C1.152 54.136 1.456 53.8 1.84 53.544C2.224 53.288 2.66133 53.128 3.152 53.064V53.4C2.704 53.304 2.30933 53.128 1.968 52.872C1.62667 52.6053 1.36 52.28 1.168 51.896C0.986667 51.5013 0.896 51.0693 0.896 50.6C0.896 49.6507 1.248 48.9093 1.952 48.376C2.656 47.832 3.61067 47.56 4.816 47.56C6.01067 47.56 6.96 47.832 7.664 48.376C8.368 48.9093 8.72 49.6507 8.72 50.6C8.72 51.0693 8.624 51.5013 8.432 51.896C8.25067 52.2907 7.98933 52.616 7.648 52.872C7.31733 53.128 6.928 53.2987 6.48 53.384V53.064C6.98133 53.128 7.41867 53.2933 7.792 53.56C8.16533 53.816 8.45867 54.152 8.672 54.568C8.88533 54.9733 8.992 55.4373 8.992 55.96C8.992 56.9627 8.61867 57.7467 7.872 58.312C7.136 58.8773 6.112 59.16 4.8 59.16ZM4.8 57.56C5.55733 57.56 6.128 57.416 6.512 57.128C6.896 56.8293 7.088 56.392 7.088 55.816C7.088 55.24 6.896 54.808 6.512 54.52C6.128 54.232 5.55733 54.088 4.8 54.088C4.05333 54.088 3.48267 54.232 3.088 54.52C2.704 54.808 2.512 55.24 2.512 55.816C2.512 56.392 2.704 56.8293 3.088 57.128C3.48267 57.416 4.05333 57.56 4.8 57.56ZM4.8 52.488C5.42933 52.488 5.92 52.3387 6.272 52.04C6.63467 51.7413 6.816 51.3307 6.816 50.808C6.816 50.296 6.63467 49.896 6.272 49.608C5.92 49.3093 5.42933 49.16 4.8 49.16C4.17067 49.16 3.68 49.3093 3.328 49.608C2.976 49.896 2.8 50.3013 2.8 50.824C2.8 51.336 2.976 51.7413 3.328 52.04C3.68 52.3387 4.17067 52.488 4.8 52.488ZM10.8738 59V57.48L14.5218 53.592C14.8524 53.24 15.1138 52.9147 15.3058 52.616C15.5084 52.3173 15.6578 52.0293 15.7538 51.752C15.8498 51.4747 15.8978 51.1973 15.8978 50.92C15.8978 50.3867 15.7271 49.9813 15.3858 49.704C15.0551 49.4267 14.5698 49.288 13.9298 49.288C13.4284 49.288 12.9378 49.384 12.4578 49.576C11.9884 49.7573 11.5351 50.0453 11.0978 50.44L10.4098 48.904C10.8578 48.4987 11.4178 48.1733 12.0898 47.928C12.7618 47.6827 13.4604 47.56 14.1858 47.56C14.9964 47.56 15.6791 47.6827 16.2338 47.928C16.7884 48.1733 17.2098 48.5307 17.4978 49C17.7858 49.4693 17.9298 50.04 17.9298 50.712C17.9298 51.0533 17.8871 51.3893 17.8018 51.72C17.7271 52.04 17.6044 52.36 17.4338 52.68C17.2738 53 17.0658 53.3307 16.8098 53.672C16.5644 54.0027 16.2658 54.3493 15.9138 54.712L12.9058 57.848V57.304H18.3618V59H10.8738ZM24.4035 59.16C23.4755 59.16 22.6808 58.9413 22.0195 58.504C21.3688 58.056 20.8728 57.416 20.5315 56.584C20.1902 55.752 20.0195 54.744 20.0195 53.56C20.0195 52.28 20.2115 51.1973 20.5955 50.312C20.9795 49.416 21.5342 48.7333 22.2595 48.264C22.9848 47.7947 23.8542 47.56 24.8675 47.56C25.2622 47.56 25.6568 47.6133 26.0515 47.72C26.4568 47.816 26.8355 47.96 27.1875 48.152C27.5502 48.3333 27.8702 48.5573 28.1475 48.824L27.4755 50.36C27.0808 49.9973 26.6595 49.7307 26.2115 49.56C25.7635 49.3787 25.3048 49.288 24.8355 49.288C24.3768 49.288 23.9662 49.3733 23.6035 49.544C23.2515 49.704 22.9528 49.9493 22.7075 50.28C22.4622 50.6 22.2755 51.0053 22.1475 51.496C22.0302 51.976 21.9715 52.536 21.9715 53.176V54.376H21.7795C21.8648 53.832 22.0408 53.368 22.3075 52.984C22.5848 52.5893 22.9368 52.2907 23.3635 52.088C23.7902 51.8747 24.2648 51.768 24.7875 51.768C25.4382 51.768 26.0142 51.9227 26.5155 52.232C27.0168 52.5413 27.4115 52.968 27.6995 53.512C27.9875 54.056 28.1315 54.68 28.1315 55.384C28.1315 56.1093 27.9715 56.76 27.6515 57.336C27.3422 57.9013 26.9048 58.3493 26.3395 58.68C25.7848 59 25.1395 59.16 24.4035 59.16ZM24.2915 57.528C24.6755 57.528 25.0115 57.4427 25.2995 57.272C25.5982 57.1013 25.8275 56.8613 25.9875 56.552C26.1475 56.232 26.2275 55.8693 26.2275 55.464C26.2275 55.048 26.1475 54.6853 25.9875 54.376C25.8275 54.0667 25.5982 53.8267 25.2995 53.656C25.0115 53.4747 24.6755 53.384 24.2915 53.384C23.9075 53.384 23.5715 53.4747 23.2835 53.656C22.9955 53.8267 22.7662 54.0667 22.5955 54.376C22.4355 54.6853 22.3555 55.048 22.3555 55.464C22.3555 55.8693 22.4355 56.232 22.5955 56.552C22.7662 56.8613 22.9955 57.1013 23.2835 57.272C23.5715 57.4427 23.9075 57.528 24.2915 57.528ZM37.8938 59.16C36.5818 59.16 35.5524 58.8773 34.8058 58.312C34.0698 57.7467 33.7018 56.9627 33.7018 55.96C33.7018 55.4267 33.8084 54.9573 34.0218 54.552C34.2458 54.136 34.5498 53.8 34.9338 53.544C35.3178 53.288 35.7551 53.128 36.2458 53.064V53.4C35.7978 53.304 35.4031 53.128 35.0618 52.872C34.7204 52.6053 34.4538 52.28 34.2618 51.896C34.0804 51.5013 33.9898 51.0693 33.9898 50.6C33.9898 49.6507 34.3418 48.9093 35.0458 48.376C35.7498 47.832 36.7044 47.56 37.9098 47.56C39.1044 47.56 40.0538 47.832 40.7578 48.376C41.4618 48.9093 41.8138 49.6507 41.8138 50.6C41.8138 51.0693 41.7178 51.5013 41.5258 51.896C41.3444 52.2907 41.0831 52.616 40.7418 52.872C40.4111 53.128 40.0218 53.2987 39.5738 53.384V53.064C40.0751 53.128 40.5124 53.2933 40.8858 53.56C41.2591 53.816 41.5524 54.152 41.7658 54.568C41.9791 54.9733 42.0858 55.4373 42.0858 55.96C42.0858 56.9627 41.7124 57.7467 40.9658 58.312C40.2298 58.8773 39.2058 59.16 37.8938 59.16ZM37.8938 57.56C38.6511 57.56 39.2218 57.416 39.6058 57.128C39.9898 56.8293 40.1818 56.392 40.1818 55.816C40.1818 55.24 39.9898 54.808 39.6058 54.52C39.2218 54.232 38.6511 54.088 37.8938 54.088C37.1471 54.088 36.5764 54.232 36.1818 54.52C35.7978 54.808 35.6058 55.24 35.6058 55.816C35.6058 56.392 35.7978 56.8293 36.1818 57.128C36.5764 57.416 37.1471 57.56 37.8938 57.56ZM37.8938 52.488C38.5231 52.488 39.0138 52.3387 39.3658 52.04C39.7284 51.7413 39.9098 51.3307 39.9098 50.808C39.9098 50.296 39.7284 49.896 39.3658 49.608C39.0138 49.3093 38.5231 49.16 37.8938 49.16C37.2644 49.16 36.7738 49.3093 36.4218 49.608C36.0698 49.896 35.8938 50.3013 35.8938 50.824C35.8938 51.336 36.0698 51.7413 36.4218 52.04C36.7738 52.3387 37.2644 52.488 37.8938 52.488ZM47.3115 59.16C46.2662 59.16 45.4875 58.8987 44.9755 58.376C44.4635 57.8533 44.2075 57.0907 44.2075 56.088V52.68H42.7035V51.176H44.2075V48.84H46.2075V51.176H48.5755V52.68H46.2075V55.976C46.2075 56.488 46.3195 56.872 46.5435 57.128C46.7675 57.384 47.1302 57.512 47.6315 57.512C47.7808 57.512 47.9355 57.496 48.0955 57.464C48.2555 57.4213 48.4208 57.3787 48.5915 57.336L48.8955 58.808C48.7035 58.9147 48.4582 59 48.1595 59.064C47.8715 59.128 47.5888 59.16 47.3115 59.16ZM49.8681 59V47.72H51.8681V52.744H51.6441C51.8788 52.1787 52.2415 51.752 52.7321 51.464C53.2335 51.1653 53.7988 51.016 54.4281 51.016C55.0575 51.016 55.5748 51.1333 55.9801 51.368C56.3855 51.6027 56.6895 51.96 56.8921 52.44C57.0948 52.9093 57.1961 53.5067 57.1961 54.232V59H55.1961V54.328C55.1961 53.9227 55.1428 53.592 55.0361 53.336C54.9401 53.08 54.7855 52.8933 54.5721 52.776C54.3695 52.648 54.1081 52.584 53.7881 52.584C53.4041 52.584 53.0681 52.6693 52.7801 52.84C52.4921 53 52.2681 53.2347 52.1081 53.544C51.9481 53.8427 51.8681 54.1947 51.8681 54.6V59H49.8681ZM67.62 59.16C67.0333 59.16 66.468 59.1067 65.924 59C65.3907 58.904 64.8947 58.76 64.436 58.568C63.988 58.376 63.588 58.1467 63.236 57.88L63.86 56.264C64.212 56.5093 64.58 56.7227 64.964 56.904C65.3587 57.0747 65.7747 57.208 66.212 57.304C66.66 57.3893 67.1293 57.432 67.62 57.432C68.4627 57.432 69.076 57.2933 69.46 57.016C69.844 56.728 70.036 56.36 70.036 55.912C70.036 55.6667 69.9773 55.4587 69.86 55.288C69.7427 55.1067 69.5507 54.952 69.284 54.824C69.0173 54.696 68.6653 54.5893 68.228 54.504L66.468 54.136C65.4547 53.9227 64.6973 53.5653 64.196 53.064C63.7053 52.552 63.46 51.88 63.46 51.048C63.46 50.344 63.6467 49.7307 64.02 49.208C64.3933 48.6853 64.9107 48.28 65.572 47.992C66.2333 47.704 66.996 47.56 67.86 47.56C68.372 47.56 68.8627 47.6133 69.332 47.72C69.812 47.816 70.2493 47.9653 70.644 48.168C71.0493 48.36 71.4013 48.5947 71.7 48.872L71.076 50.408C70.628 50.0347 70.1373 49.7573 69.604 49.576C69.0707 49.384 68.484 49.288 67.844 49.288C67.3533 49.288 66.932 49.3573 66.58 49.496C66.228 49.6347 65.956 49.832 65.764 50.088C65.5827 50.3333 65.492 50.6267 65.492 50.968C65.492 51.352 65.62 51.6613 65.876 51.896C66.132 52.12 66.5693 52.296 67.188 52.424L68.932 52.792C69.988 53.016 70.772 53.368 71.284 53.848C71.8067 54.328 72.068 54.968 72.068 55.768C72.068 56.44 71.8867 57.032 71.524 57.544C71.1613 58.056 70.644 58.456 69.972 58.744C69.3107 59.0213 68.5267 59.16 67.62 59.16ZM77.1396 59.16C76.0943 59.16 75.3156 58.8987 74.8036 58.376C74.2916 57.8533 74.0356 57.0907 74.0356 56.088V52.68H72.5316V51.176H74.0356V48.84H76.0356V51.176H78.4036V52.68H76.0356V55.976C76.0356 56.488 76.1476 56.872 76.3716 57.128C76.5956 57.384 76.9583 57.512 77.4596 57.512C77.609 57.512 77.7636 57.496 77.9236 57.464C78.0836 57.4213 78.249 57.3787 78.4196 57.336L78.7236 58.808C78.5316 58.9147 78.2863 59 77.9876 59.064C77.6996 59.128 77.417 59.16 77.1396 59.16ZM79.8015 59V56.776H82.0415V59H79.8015ZM84.7463 61.128L83.9303 60.488C84.1649 60.2533 84.3463 60.0293 84.4743 59.816C84.6023 59.6133 84.6929 59.4053 84.7463 59.192C84.8103 58.9787 84.8423 58.76 84.8423 58.536L85.2743 59H83.7703V56.776H86.0103V58.248C86.0103 58.6107 85.9676 58.952 85.8823 59.272C85.8076 59.592 85.6796 59.9013 85.4983 60.2C85.3169 60.5093 85.0663 60.8187 84.7463 61.128ZM97.6675 59.16C96.4942 59.16 95.4862 58.9253 94.6435 58.456C93.8115 57.976 93.1715 57.304 92.7235 56.44C92.2755 55.5653 92.0515 54.536 92.0515 53.352C92.0515 52.168 92.2755 51.144 92.7235 50.28C93.1715 49.416 93.8115 48.7493 94.6435 48.28C95.4862 47.8 96.4942 47.56 97.6675 47.56C98.4248 47.56 99.1395 47.6773 99.8115 47.912C100.494 48.1467 101.054 48.4827 101.492 48.92L100.82 50.552C100.34 50.1467 99.8488 49.8533 99.3475 49.672C98.8462 49.48 98.3075 49.384 97.7315 49.384C96.5902 49.384 95.7208 49.7307 95.1235 50.424C94.5262 51.1067 94.2275 52.0827 94.2275 53.352C94.2275 54.6213 94.5262 55.6027 95.1235 56.296C95.7208 56.9893 96.5902 57.336 97.7315 57.336C98.3075 57.336 98.8462 57.2453 99.3475 57.064C99.8488 56.872 100.34 56.5733 100.82 56.168L101.492 57.8C101.054 58.2267 100.494 58.5627 99.8115 58.808C99.1395 59.0427 98.4248 59.16 97.6675 59.16ZM105.382 59.16C104.816 59.16 104.31 59.0533 103.862 58.84C103.424 58.616 103.078 58.3173 102.822 57.944C102.576 57.5707 102.454 57.1493 102.454 56.68C102.454 56.104 102.603 55.6507 102.902 55.32C103.2 54.9787 103.686 54.7333 104.358 54.584C105.03 54.4347 105.931 54.36 107.062 54.36H107.862V55.512H107.078C106.576 55.512 106.155 55.5333 105.814 55.576C105.472 55.608 105.195 55.6667 104.982 55.752C104.779 55.8267 104.63 55.9333 104.534 56.072C104.448 56.2107 104.406 56.3813 104.406 56.584C104.406 56.936 104.528 57.224 104.774 57.448C105.019 57.672 105.36 57.784 105.798 57.784C106.15 57.784 106.459 57.704 106.726 57.544C107.003 57.3733 107.222 57.144 107.382 56.856C107.542 56.568 107.622 56.2373 107.622 55.864V54.024C107.622 53.4907 107.504 53.1067 107.27 52.872C107.035 52.6373 106.64 52.52 106.086 52.52C105.648 52.52 105.2 52.5893 104.742 52.728C104.283 52.856 103.819 53.0587 103.35 53.336L102.774 51.976C103.051 51.784 103.376 51.6187 103.75 51.48C104.134 51.3307 104.534 51.2187 104.95 51.144C105.376 51.0587 105.776 51.016 106.15 51.016C106.918 51.016 107.547 51.1333 108.038 51.368C108.539 51.6027 108.912 51.96 109.158 52.44C109.403 52.9093 109.526 53.5173 109.526 54.264V59H107.654V57.336H107.782C107.707 57.7093 107.558 58.0347 107.334 58.312C107.12 58.5787 106.848 58.7867 106.518 58.936C106.187 59.0853 105.808 59.16 105.382 59.16ZM111.556 59V51.176H113.508V52.744H113.332C113.566 52.1787 113.929 51.752 114.42 51.464C114.921 51.1653 115.486 51.016 116.116 51.016C116.745 51.016 117.262 51.1333 117.668 51.368C118.073 51.6027 118.377 51.96 118.58 52.44C118.782 52.9093 118.884 53.5067 118.884 54.232V59H116.884V54.328C116.884 53.9227 116.83 53.592 116.724 53.336C116.628 53.08 116.473 52.8933 116.26 52.776C116.057 52.648 115.796 52.584 115.476 52.584C115.092 52.584 114.756 52.6693 114.468 52.84C114.18 53 113.956 53.2347 113.796 53.544C113.636 53.8427 113.556 54.1947 113.556 54.6V59H111.556ZM120.947 59V51.176H122.899V52.744H122.723C122.862 52.3813 123.054 52.072 123.299 51.816C123.544 51.56 123.838 51.3627 124.179 51.224C124.52 51.0853 124.899 51.016 125.315 51.016C125.944 51.016 126.462 51.1653 126.867 51.464C127.272 51.7627 127.555 52.2213 127.715 52.84H127.491C127.704 52.2747 128.056 51.832 128.547 51.512C129.038 51.1813 129.603 51.016 130.243 51.016C130.84 51.016 131.331 51.1333 131.715 51.368C132.11 51.6027 132.403 51.96 132.595 52.44C132.787 52.9093 132.883 53.5067 132.883 54.232V59H130.883V54.312C130.883 53.7147 130.782 53.2773 130.579 53C130.387 52.7227 130.056 52.584 129.587 52.584C129.246 52.584 128.947 52.6693 128.691 52.84C128.435 53 128.238 53.2347 128.099 53.544C127.971 53.8533 127.907 54.2267 127.907 54.664V59H125.907V54.312C125.907 53.7147 125.806 53.2773 125.603 53C125.411 52.7227 125.086 52.584 124.627 52.584C124.275 52.584 123.971 52.6693 123.715 52.84C123.47 53 123.278 53.2347 123.139 53.544C123.011 53.8533 122.947 54.2267 122.947 54.664V59H120.947ZM138.514 59.16C137.704 59.16 137 58.9947 136.402 58.664C135.805 58.3333 135.341 57.864 135.01 57.256C134.68 56.6373 134.514 55.912 134.514 55.08C134.514 54.248 134.68 53.528 135.01 52.92C135.341 52.312 135.805 51.8427 136.402 51.512C137 51.1813 137.704 51.016 138.514 51.016C139.325 51.016 140.029 51.1813 140.626 51.512C141.224 51.8427 141.688 52.312 142.018 52.92C142.349 53.528 142.514 54.248 142.514 55.08C142.514 55.912 142.349 56.6373 142.018 57.256C141.688 57.864 141.224 58.3333 140.626 58.664C140.029 58.9947 139.325 59.16 138.514 59.16ZM138.514 57.64C139.112 57.64 139.592 57.4267 139.954 57C140.317 56.5627 140.498 55.9227 140.498 55.08C140.498 54.2267 140.317 53.592 139.954 53.176C139.592 52.7493 139.112 52.536 138.514 52.536C137.917 52.536 137.437 52.7493 137.074 53.176C136.712 53.592 136.53 54.2267 136.53 55.08C136.53 55.9227 136.712 56.5627 137.074 57C137.437 57.4267 137.917 57.64 138.514 57.64ZM144.165 59V51.176H146.117V53.064H145.957C146.106 52.424 146.4 51.9387 146.837 51.608C147.274 51.2667 147.856 51.0693 148.581 51.016L149.189 50.968L149.317 52.664L148.165 52.776C147.514 52.84 147.024 53.0427 146.693 53.384C146.362 53.7147 146.197 54.184 146.197 54.792V59H144.165ZM154.162 59.16C153.276 59.16 152.514 58.9947 151.874 58.664C151.234 58.3333 150.738 57.864 150.386 57.256C150.044 56.648 149.874 55.928 149.874 55.096C149.874 54.2853 150.039 53.576 150.37 52.968C150.711 52.36 151.175 51.8853 151.762 51.544C152.359 51.192 153.036 51.016 153.794 51.016C154.54 51.016 155.18 51.176 155.714 51.496C156.247 51.816 156.658 52.2693 156.946 52.856C157.244 53.4427 157.394 54.1413 157.394 54.952V55.544H151.49V54.392H155.986L155.73 54.632C155.73 53.9067 155.57 53.352 155.25 52.968C154.93 52.5733 154.471 52.376 153.874 52.376C153.426 52.376 153.042 52.4827 152.722 52.696C152.412 52.8987 152.172 53.192 152.002 53.576C151.842 53.9493 151.762 54.3973 151.762 54.92V55.032C151.762 55.6187 151.852 56.104 152.034 56.488C152.215 56.872 152.487 57.16 152.85 57.352C153.212 57.544 153.66 57.64 154.194 57.64C154.631 57.64 155.068 57.576 155.506 57.448C155.943 57.3093 156.343 57.096 156.706 56.808L157.266 58.152C156.892 58.4613 156.423 58.7067 155.858 58.888C155.292 59.0693 154.727 59.16 154.162 59.16ZM159.778 61.128L158.962 60.488C159.196 60.2533 159.378 60.0293 159.506 59.816C159.634 59.6133 159.724 59.4053 159.778 59.192C159.842 58.9787 159.874 58.76 159.874 58.536L160.306 59H158.802V56.776H161.042V58.248C161.042 58.6107 160.999 58.952 160.914 59.272C160.839 59.592 160.711 59.9013 160.53 60.2C160.348 60.5093 160.098 60.8187 159.778 61.128ZM166.235 59L171.339 47.72H173.019L178.123 59H176.043L174.683 55.832L175.547 56.392H168.795L169.659 55.832L168.315 59H166.235ZM172.155 49.944L169.915 55.272L169.499 54.76H174.843L174.443 55.272L172.187 49.944H172.155ZM179.357 59V47.72H184.285C185.469 47.72 186.386 47.9813 187.037 48.504C187.688 49.016 188.013 49.7307 188.013 50.648C188.013 51.3307 187.816 51.9067 187.421 52.376C187.026 52.8453 186.488 53.16 185.805 53.32V53.08C186.328 53.1547 186.776 53.3147 187.149 53.56C187.522 53.8053 187.805 54.12 187.997 54.504C188.2 54.888 188.301 55.336 188.301 55.848C188.301 56.5093 188.146 57.08 187.837 57.56C187.538 58.0293 187.101 58.3867 186.525 58.632C185.949 58.8773 185.261 59 184.461 59H179.357ZM181.325 57.448H184.205C184.493 57.448 184.749 57.4267 184.973 57.384C185.208 57.3413 185.405 57.2773 185.565 57.192C185.736 57.096 185.874 56.9787 185.981 56.84C186.098 56.7013 186.184 56.5413 186.237 56.36C186.29 56.1787 186.317 55.976 186.317 55.752C186.317 55.5173 186.29 55.3093 186.237 55.128C186.184 54.9467 186.098 54.792 185.981 54.664C185.874 54.5253 185.736 54.4133 185.565 54.328C185.405 54.232 185.208 54.1627 184.973 54.12C184.749 54.0773 184.493 54.056 184.205 54.056H181.325V57.448ZM181.325 52.504H183.933C184.637 52.504 185.16 52.3707 185.501 52.104C185.853 51.8267 186.029 51.4213 186.029 50.888C186.029 50.3547 185.853 49.9547 185.501 49.688C185.16 49.4107 184.637 49.272 183.933 49.272H181.325V52.504ZM197.405 59V49.432H193.533V47.72H203.325V49.432H199.453V59H197.405ZM205.135 59V57.304H207.679V49.448H208.671L205.711 51.24L204.911 49.736L208.271 47.72H209.727V57.304H212.111V59H205.135ZM217.32 59L213.336 47.72H215.448L218.568 56.968H217.928L221.192 47.72H222.712L225.864 56.968H225.304L228.472 47.72H230.472L226.456 59H224.76L221.72 50.328H222.088L219.016 59H217.32ZM236.389 59V57.48L240.037 53.592C240.368 53.24 240.629 52.9147 240.821 52.616C241.024 52.3173 241.173 52.0293 241.269 51.752C241.365 51.4747 241.413 51.1973 241.413 50.92C241.413 50.3867 241.243 49.9813 240.901 49.704C240.571 49.4267 240.085 49.288 239.445 49.288C238.944 49.288 238.453 49.384 237.973 49.576C237.504 49.7573 237.051 50.0453 236.613 50.44L235.925 48.904C236.373 48.4987 236.933 48.1733 237.605 47.928C238.277 47.6827 238.976 47.56 239.701 47.56C240.512 47.56 241.195 47.6827 241.749 47.928C242.304 48.1733 242.725 48.5307 243.013 49C243.301 49.4693 243.445 50.04 243.445 50.712C243.445 51.0533 243.403 51.3893 243.317 51.72C243.243 52.04 243.12 52.36 242.949 52.68C242.789 53 242.581 53.3307 242.325 53.672C242.08 54.0027 241.781 54.3493 241.429 54.712L238.421 57.848V57.304H243.877V59H236.389ZM244.607 59L249.247 52.824V53.704L244.767 47.72H247.151L250.415 52.216H249.759L253.007 47.72H255.407L250.927 53.704V52.824L255.551 59H253.151L249.727 54.296H250.431L247.023 59H244.607ZM260.669 59.16C259.741 59.16 258.946 58.9413 258.285 58.504C257.634 58.056 257.138 57.416 256.797 56.584C256.456 55.752 256.285 54.744 256.285 53.56C256.285 52.28 256.477 51.1973 256.861 50.312C257.245 49.416 257.8 48.7333 258.525 48.264C259.25 47.7947 260.12 47.56 261.133 47.56C261.528 47.56 261.922 47.6133 262.317 47.72C262.722 47.816 263.101 47.96 263.453 48.152C263.816 48.3333 264.136 48.5573 264.413 48.824L263.741 50.36C263.346 49.9973 262.925 49.7307 262.477 49.56C262.029 49.3787 261.57 49.288 261.101 49.288C260.642 49.288 260.232 49.3733 259.869 49.544C259.517 49.704 259.218 49.9493 258.973 50.28C258.728 50.6 258.541 51.0053 258.413 51.496C258.296 51.976 258.237 52.536 258.237 53.176V54.376H258.045C258.13 53.832 258.306 53.368 258.573 52.984C258.85 52.5893 259.202 52.2907 259.629 52.088C260.056 51.8747 260.53 51.768 261.053 51.768C261.704 51.768 262.28 51.9227 262.781 52.232C263.282 52.5413 263.677 52.968 263.965 53.512C264.253 54.056 264.397 54.68 264.397 55.384C264.397 56.1093 264.237 56.76 263.917 57.336C263.608 57.9013 263.17 58.3493 262.605 58.68C262.05 59 261.405 59.16 260.669 59.16ZM260.557 57.528C260.941 57.528 261.277 57.4427 261.565 57.272C261.864 57.1013 262.093 56.8613 262.253 56.552C262.413 56.232 262.493 55.8693 262.493 55.464C262.493 55.048 262.413 54.6853 262.253 54.376C262.093 54.0667 261.864 53.8267 261.565 53.656C261.277 53.4747 260.941 53.384 260.557 53.384C260.173 53.384 259.837 53.4747 259.549 53.656C259.261 53.8267 259.032 54.0667 258.861 54.376C258.701 54.6853 258.621 55.048 258.621 55.464C258.621 55.8693 258.701 56.232 258.861 56.552C259.032 56.8613 259.261 57.1013 259.549 57.272C259.837 57.4427 260.173 57.528 260.557 57.528Z" fill="#004167"/>
<path d="M4.064 103.36V100.112H0.896V98.704H4.064V95.552H5.536V98.704H8.704V100.112H5.536V103.36H4.064ZM11.3378 104V102.304H13.8818V94.448H14.8738L11.9138 96.24L11.1138 94.736L14.4738 92.72H15.9298V102.304H18.3138V104H11.3378ZM20.2755 100.512V98.912H25.0435V100.512H20.2755ZM31.709 104V101.856H26.797V100.352L32.061 92.72H33.757V100.16H35.341V101.856H33.757V104H31.709ZM31.709 100.16V95.168H32.173L28.397 100.704V100.16H31.709ZM40.5188 104.16C39.6334 104.16 38.8814 103.936 38.2628 103.488C37.6548 103.029 37.1908 102.368 36.8708 101.504C36.5614 100.64 36.4068 99.584 36.4068 98.336C36.4068 97.0773 36.5614 96.0213 36.8708 95.168C37.1908 94.304 37.6548 93.6533 38.2628 93.216C38.8814 92.7787 39.6334 92.56 40.5188 92.56C41.4148 92.56 42.1668 92.7787 42.7748 93.216C43.3934 93.6533 43.8574 94.2987 44.1667 95.152C44.4761 96.0053 44.6308 97.0613 44.6308 98.32C44.6308 99.568 44.4708 100.629 44.1508 101.504C43.8414 102.368 43.3828 103.029 42.7748 103.488C42.1668 103.936 41.4148 104.16 40.5188 104.16ZM40.5188 102.48C41.2441 102.48 41.7774 102.149 42.1188 101.488C42.4708 100.816 42.6468 99.76 42.6468 98.32C42.6468 96.8907 42.4708 95.856 42.1188 95.216C41.7774 94.5653 41.2441 94.24 40.5188 94.24C39.8041 94.24 39.2708 94.5653 38.9188 95.216C38.5668 95.856 38.3908 96.896 38.3908 98.336C38.3908 99.7653 38.5668 100.816 38.9188 101.488C39.2708 102.149 39.8041 102.48 40.5188 102.48ZM49.8885 104.16C49.3765 104.16 48.8752 104.107 48.3845 104C47.9045 103.904 47.4565 103.76 47.0405 103.568C46.6245 103.376 46.2618 103.147 45.9525 102.88L46.6245 101.312C47.1258 101.696 47.6378 101.979 48.1605 102.16C48.6832 102.341 49.2378 102.432 49.8245 102.432C50.2938 102.432 50.6885 102.368 51.0085 102.24C51.3285 102.112 51.5685 101.92 51.7285 101.664C51.8992 101.408 51.9845 101.099 51.9845 100.736C51.9845 100.203 51.8032 99.808 51.4405 99.552C51.0885 99.2853 50.5712 99.152 49.8885 99.152H48.0805V97.456H49.6965C50.1018 97.456 50.4485 97.392 50.7365 97.264C51.0245 97.1253 51.2485 96.9333 51.4085 96.688C51.5685 96.4427 51.6485 96.144 51.6485 95.792C51.6485 95.3013 51.4832 94.928 51.1525 94.672C50.8325 94.416 50.3632 94.288 49.7445 94.288C49.1898 94.288 48.6725 94.384 48.1925 94.576C47.7125 94.7573 47.2538 95.0453 46.8165 95.44L46.1445 93.904C46.5925 93.4773 47.1525 93.1467 47.8245 92.912C48.4965 92.6773 49.1952 92.56 49.9205 92.56C50.6992 92.56 51.3658 92.6827 51.9205 92.928C52.4752 93.1627 52.8965 93.504 53.1845 93.952C53.4832 94.3893 53.6325 94.9227 53.6325 95.552C53.6325 96.224 53.4458 96.8053 53.0725 97.296C52.6992 97.776 52.1872 98.096 51.5365 98.256V98.064C52.0485 98.1493 52.4858 98.32 52.8485 98.576C53.2112 98.832 53.4885 99.1573 53.6805 99.552C53.8725 99.9467 53.9685 100.4 53.9685 100.912C53.9685 101.573 53.8032 102.149 53.4725 102.64C53.1418 103.131 52.6725 103.509 52.0645 103.776C51.4565 104.032 50.7312 104.16 49.8885 104.16ZM55.9943 100.512V98.912H60.7623V100.512H55.9943ZM67.0598 104.16C66.1318 104.16 65.3371 103.941 64.6758 103.504C64.0251 103.056 63.5291 102.416 63.1878 101.584C62.8464 100.752 62.6758 99.744 62.6758 98.56C62.6758 97.28 62.8678 96.1973 63.2518 95.312C63.6358 94.416 64.1904 93.7333 64.9158 93.264C65.6411 92.7947 66.5104 92.56 67.5238 92.56C67.9184 92.56 68.3131 92.6133 68.7078 92.72C69.1131 92.816 69.4918 92.96 69.8438 93.152C70.2064 93.3333 70.5264 93.5573 70.8038 93.824L70.1318 95.36C69.7371 94.9973 69.3158 94.7307 68.8678 94.56C68.4198 94.3787 67.9611 94.288 67.4918 94.288C67.0331 94.288 66.6224 94.3733 66.2598 94.544C65.9078 94.704 65.6091 94.9493 65.3638 95.28C65.1184 95.6 64.9318 96.0053 64.8038 96.496C64.6864 96.976 64.6278 97.536 64.6278 98.176V99.376H64.4358C64.5211 98.832 64.6971 98.368 64.9638 97.984C65.2411 97.5893 65.5931 97.2907 66.0198 97.088C66.4464 96.8747 66.9211 96.768 67.4438 96.768C68.0944 96.768 68.6704 96.9227 69.1718 97.232C69.6731 97.5413 70.0677 97.968 70.3558 98.512C70.6438 99.056 70.7878 99.68 70.7878 100.384C70.7878 101.109 70.6278 101.76 70.3078 102.336C69.9984 102.901 69.5611 103.349 68.9958 103.68C68.4411 104 67.7958 104.16 67.0598 104.16ZM66.9478 102.528C67.3318 102.528 67.6678 102.443 67.9558 102.272C68.2544 102.101 68.4838 101.861 68.6438 101.552C68.8038 101.232 68.8838 100.869 68.8838 100.464C68.8838 100.048 68.8038 99.6853 68.6438 99.376C68.4838 99.0667 68.2544 98.8267 67.9558 98.656C67.6678 98.4747 67.3318 98.384 66.9478 98.384C66.5638 98.384 66.2278 98.4747 65.9398 98.656C65.6518 98.8267 65.4224 99.0667 65.2518 99.376C65.0918 99.6853 65.0118 100.048 65.0118 100.464C65.0118 100.869 65.0918 101.232 65.2518 101.552C65.4224 101.861 65.6518 102.101 65.9398 102.272C66.2278 102.443 66.5638 102.528 66.9478 102.528ZM76.2375 104.16C74.9255 104.16 73.8962 103.877 73.1495 103.312C72.4135 102.747 72.0455 101.963 72.0455 100.96C72.0455 100.427 72.1522 99.9573 72.3655 99.552C72.5895 99.136 72.8935 98.8 73.2775 98.544C73.6615 98.288 74.0988 98.128 74.5895 98.064V98.4C74.1415 98.304 73.7468 98.128 73.4055 97.872C73.0642 97.6053 72.7975 97.28 72.6055 96.896C72.4242 96.5013 72.3335 96.0693 72.3335 95.6C72.3335 94.6507 72.6855 93.9093 73.3895 93.376C74.0935 92.832 75.0482 92.56 76.2535 92.56C77.4482 92.56 78.3975 92.832 79.1015 93.376C79.8055 93.9093 80.1575 94.6507 80.1575 95.6C80.1575 96.0693 80.0615 96.5013 79.8695 96.896C79.6882 97.2907 79.4268 97.616 79.0855 97.872C78.7548 98.128 78.3655 98.2987 77.9175 98.384V98.064C78.4188 98.128 78.8562 98.2933 79.2295 98.56C79.6028 98.816 79.8962 99.152 80.1095 99.568C80.3228 99.9733 80.4295 100.437 80.4295 100.96C80.4295 101.963 80.0562 102.747 79.3095 103.312C78.5735 103.877 77.5495 104.16 76.2375 104.16ZM76.2375 102.56C76.9948 102.56 77.5655 102.416 77.9495 102.128C78.3335 101.829 78.5255 101.392 78.5255 100.816C78.5255 100.24 78.3335 99.808 77.9495 99.52C77.5655 99.232 76.9948 99.088 76.2375 99.088C75.4908 99.088 74.9202 99.232 74.5255 99.52C74.1415 99.808 73.9495 100.24 73.9495 100.816C73.9495 101.392 74.1415 101.829 74.5255 102.128C74.9202 102.416 75.4908 102.56 76.2375 102.56ZM76.2375 97.488C76.8668 97.488 77.3575 97.3387 77.7095 97.04C78.0722 96.7413 78.2535 96.3307 78.2535 95.808C78.2535 95.296 78.0722 94.896 77.7095 94.608C77.3575 94.3093 76.8668 94.16 76.2375 94.16C75.6082 94.16 75.1175 94.3093 74.7655 94.608C74.4135 94.896 74.2375 95.3013 74.2375 95.824C74.2375 96.336 74.4135 96.7413 74.7655 97.04C75.1175 97.3387 75.6082 97.488 76.2375 97.488ZM86.2473 104.16C85.3193 104.16 84.5246 103.941 83.8633 103.504C83.2126 103.056 82.7166 102.416 82.3753 101.584C82.0339 100.752 81.8633 99.744 81.8633 98.56C81.8633 97.28 82.0553 96.1973 82.4393 95.312C82.8233 94.416 83.3779 93.7333 84.1033 93.264C84.8286 92.7947 85.6979 92.56 86.7113 92.56C87.1059 92.56 87.5006 92.6133 87.8953 92.72C88.3006 92.816 88.6793 92.96 89.0312 93.152C89.3939 93.3333 89.7139 93.5573 89.9913 93.824L89.3193 95.36C88.9246 94.9973 88.5033 94.7307 88.0553 94.56C87.6073 94.3787 87.1486 94.288 86.6793 94.288C86.2206 94.288 85.8099 94.3733 85.4473 94.544C85.0953 94.704 84.7966 94.9493 84.5513 95.28C84.3059 95.6 84.1193 96.0053 83.9913 96.496C83.8739 96.976 83.8153 97.536 83.8153 98.176V99.376H83.6233C83.7086 98.832 83.8846 98.368 84.1513 97.984C84.4286 97.5893 84.7806 97.2907 85.2073 97.088C85.6339 96.8747 86.1086 96.768 86.6313 96.768C87.2819 96.768 87.8579 96.9227 88.3593 97.232C88.8606 97.5413 89.2552 97.968 89.5433 98.512C89.8313 99.056 89.9753 99.68 89.9753 100.384C89.9753 101.109 89.8153 101.76 89.4953 102.336C89.1859 102.901 88.7486 103.349 88.1833 103.68C87.6286 104 86.9833 104.16 86.2473 104.16ZM86.1353 102.528C86.5193 102.528 86.8553 102.443 87.1433 102.272C87.4419 102.101 87.6713 101.861 87.8313 101.552C87.9913 101.232 88.0713 100.869 88.0713 100.464C88.0713 100.048 87.9913 99.6853 87.8313 99.376C87.6713 99.0667 87.4419 98.8267 87.1433 98.656C86.8553 98.4747 86.5193 98.384 86.1353 98.384C85.7513 98.384 85.4153 98.4747 85.1273 98.656C84.8393 98.8267 84.6099 99.0667 84.4393 99.376C84.2793 99.6853 84.1993 100.048 84.1993 100.464C84.1993 100.869 84.2793 101.232 84.4393 101.552C84.6099 101.861 84.8393 102.101 85.1273 102.272C85.4153 102.443 85.7513 102.528 86.1353 102.528ZM91.713 100.512V98.912H96.481V100.512H91.713ZM103.147 104V101.856H98.2345V100.352L103.499 92.72H105.195V100.16H106.779V101.856H105.195V104H103.147ZM103.147 100.16V95.168H103.611L99.8345 100.704V100.16H103.147ZM108.436 104V102.48L112.084 98.592C112.415 98.24 112.676 97.9147 112.868 97.616C113.071 97.3173 113.22 97.0293 113.316 96.752C113.412 96.4747 113.46 96.1973 113.46 95.92C113.46 95.3867 113.29 94.9813 112.948 94.704C112.618 94.4267 112.132 94.288 111.492 94.288C110.991 94.288 110.5 94.384 110.02 94.576C109.551 94.7573 109.098 95.0453 108.66 95.44L107.972 93.904C108.42 93.4987 108.98 93.1733 109.652 92.928C110.324 92.6827 111.023 92.56 111.748 92.56C112.559 92.56 113.242 92.6827 113.796 92.928C114.351 93.1733 114.772 93.5307 115.06 94C115.348 94.4693 115.492 95.04 115.492 95.712C115.492 96.0533 115.45 96.3893 115.364 96.72C115.29 97.04 115.167 97.36 114.996 97.68C114.836 98 114.628 98.3307 114.372 98.672C114.127 99.0027 113.828 99.3493 113.476 99.712L110.468 102.848V102.304H115.924V104H108.436ZM122.334 104V101.856H117.422V100.352L122.686 92.72H124.382V100.16H125.966V101.856H124.382V104H122.334ZM122.334 100.16V95.168H122.798L119.022 100.704V100.16H122.334ZM127.624 104V102.48L131.272 98.592C131.602 98.24 131.864 97.9147 132.056 97.616C132.258 97.3173 132.408 97.0293 132.504 96.752C132.6 96.4747 132.648 96.1973 132.648 95.92C132.648 95.3867 132.477 94.9813 132.136 94.704C131.805 94.4267 131.32 94.288 130.68 94.288C130.178 94.288 129.688 94.384 129.208 94.576C128.738 94.7573 128.285 95.0453 127.848 95.44L127.16 93.904C127.608 93.4987 128.168 93.1733 128.84 92.928C129.512 92.6827 130.21 92.56 130.936 92.56C131.746 92.56 132.429 92.6827 132.984 92.928C133.538 93.1733 133.96 93.5307 134.248 94C134.536 94.4693 134.68 95.04 134.68 95.712C134.68 96.0533 134.637 96.3893 134.552 96.72C134.477 97.04 134.354 97.36 134.184 97.68C134.024 98 133.816 98.3307 133.56 98.672C133.314 99.0027 133.016 99.3493 132.664 99.712L129.656 102.848V102.304H135.112V104H127.624Z" fill="#004167"/>
<path d="M1.04 140V132.176H2.992V134.064H2.832C2.98133 133.424 3.27467 132.939 3.712 132.608C4.14933 132.267 4.73067 132.069 5.456 132.016L6.064 131.968L6.192 133.664L5.04 133.776C4.38933 133.84 3.89867 134.043 3.568 134.384C3.23733 134.715 3.072 135.184 3.072 135.792V140H1.04ZM10.7486 140.16C9.93796 140.16 9.23396 139.995 8.63663 139.664C8.03929 139.333 7.57529 138.864 7.24463 138.256C6.91396 137.637 6.74863 136.912 6.74863 136.08C6.74863 135.248 6.91396 134.528 7.24463 133.92C7.57529 133.312 8.03929 132.843 8.63663 132.512C9.23396 132.181 9.93796 132.016 10.7486 132.016C11.5593 132.016 12.2633 132.181 12.8606 132.512C13.458 132.843 13.922 133.312 14.2526 133.92C14.5833 134.528 14.7486 135.248 14.7486 136.08C14.7486 136.912 14.5833 137.637 14.2526 138.256C13.922 138.864 13.458 139.333 12.8606 139.664C12.2633 139.995 11.5593 140.16 10.7486 140.16ZM10.7486 138.64C11.346 138.64 11.826 138.427 12.1886 138C12.5513 137.563 12.7326 136.923 12.7326 136.08C12.7326 135.227 12.5513 134.592 12.1886 134.176C11.826 133.749 11.346 133.536 10.7486 133.536C10.1513 133.536 9.67129 133.749 9.30863 134.176C8.94596 134.592 8.76463 135.227 8.76463 136.08C8.76463 136.923 8.94596 137.563 9.30863 138C9.67129 138.427 10.1513 138.64 10.7486 138.64ZM20.0154 140.16C19.194 140.16 18.4794 139.995 17.8714 139.664C17.2634 139.323 16.794 138.843 16.4634 138.224C16.1327 137.605 15.9674 136.88 15.9674 136.048C15.9674 135.216 16.1327 134.501 16.4634 133.904C16.794 133.296 17.2634 132.832 17.8714 132.512C18.4794 132.181 19.194 132.016 20.0154 132.016C20.5167 132.016 21.0127 132.096 21.5034 132.256C21.994 132.416 22.3994 132.64 22.7194 132.928L22.1274 134.32C21.85 134.075 21.5354 133.888 21.1834 133.76C20.842 133.632 20.5114 133.568 20.1914 133.568C19.498 133.568 18.9594 133.787 18.5754 134.224C18.202 134.651 18.0154 135.264 18.0154 136.064C18.0154 136.853 18.202 137.477 18.5754 137.936C18.9594 138.384 19.498 138.608 20.1914 138.608C20.5007 138.608 20.8314 138.544 21.1834 138.416C21.5354 138.288 21.85 138.096 22.1274 137.84L22.7194 139.248C22.3994 139.525 21.9887 139.749 21.4874 139.92C20.9967 140.08 20.506 140.16 20.0154 140.16ZM23.9463 140V128.72H25.9463V135.504H25.9783L29.1303 132.176H31.5463L27.6102 136.336V135.504L31.7703 140H29.3223L25.9783 136.512H25.9463V140H23.9463ZM32.9471 142.88L34.5791 139.28V140.112L31.1391 132.176H33.2671L35.6991 138.24H35.2191L37.6991 132.176H39.7151L35.0111 142.88H32.9471ZM40.665 140V132.176H42.617V134.064H42.457C42.6063 133.424 42.8997 132.939 43.337 132.608C43.7743 132.267 44.3557 132.069 45.081 132.016L45.689 131.968L45.817 133.664L44.665 133.776C44.0143 133.84 43.5237 134.043 43.193 134.384C42.8623 134.715 42.697 135.184 42.697 135.792V140H40.665ZM46.8026 130.496V128.544H49.0426V130.496H46.8026ZM46.9306 140V132.176H48.9306V140H46.9306ZM54.0168 140.16C53.3341 140.16 52.7314 139.995 52.2088 139.664C51.6968 139.333 51.2968 138.864 51.0088 138.256C50.7208 137.637 50.5768 136.912 50.5768 136.08C50.5768 135.237 50.7208 134.517 51.0088 133.92C51.2968 133.312 51.6968 132.843 52.2088 132.512C52.7314 132.181 53.3341 132.016 54.0168 132.016C54.6674 132.016 55.2328 132.176 55.7128 132.496C56.2034 132.816 56.5341 133.237 56.7048 133.76H56.5288V128.72H58.5288V140H56.5768V138.336H56.7208C56.5608 138.891 56.2354 139.333 55.7448 139.664C55.2541 139.995 54.6781 140.16 54.0168 140.16ZM54.5768 138.64C55.1741 138.64 55.6541 138.427 56.0168 138C56.3794 137.563 56.5608 136.923 56.5608 136.08C56.5608 135.227 56.3794 134.592 56.0168 134.176C55.6541 133.749 55.1741 133.536 54.5768 133.536C53.9794 133.536 53.4994 133.749 53.1368 134.176C52.7741 134.592 52.5928 135.227 52.5928 136.08C52.5928 136.923 52.7741 137.563 53.1368 138C53.4994 138.427 53.9794 138.64 54.5768 138.64ZM64.4585 140.16C63.5732 140.16 62.8105 139.995 62.1705 139.664C61.5305 139.333 61.0345 138.864 60.6825 138.256C60.3412 137.648 60.1705 136.928 60.1705 136.096C60.1705 135.285 60.3358 134.576 60.6665 133.968C61.0078 133.36 61.4718 132.885 62.0585 132.544C62.6558 132.192 63.3332 132.016 64.0905 132.016C64.8372 132.016 65.4772 132.176 66.0105 132.496C66.5438 132.816 66.9545 133.269 67.2425 133.856C67.5412 134.443 67.6905 135.141 67.6905 135.952V136.544H61.7865V135.392H66.2825L66.0265 135.632C66.0265 134.907 65.8665 134.352 65.5465 133.968C65.2265 133.573 64.7678 133.376 64.1705 133.376C63.7225 133.376 63.3385 133.483 63.0185 133.696C62.7092 133.899 62.4692 134.192 62.2985 134.576C62.1385 134.949 62.0585 135.397 62.0585 135.92V136.032C62.0585 136.619 62.1492 137.104 62.3305 137.488C62.5118 137.872 62.7838 138.16 63.1465 138.352C63.5092 138.544 63.9572 138.64 64.4905 138.64C64.9278 138.64 65.3652 138.576 65.8025 138.448C66.2398 138.309 66.6398 138.096 67.0025 137.808L67.5625 139.152C67.1892 139.461 66.7198 139.707 66.1545 139.888C65.5892 140.069 65.0238 140.16 64.4585 140.16ZM72.1384 140.16C71.701 140.16 71.2744 140.123 70.8584 140.048C70.453 139.973 70.0797 139.872 69.7384 139.744C69.397 139.605 69.0984 139.435 68.8424 139.232L69.3544 137.92C69.621 138.091 69.909 138.24 70.2184 138.368C70.5277 138.496 70.8477 138.592 71.1784 138.656C71.509 138.72 71.8344 138.752 72.1544 138.752C72.6664 138.752 73.045 138.667 73.2904 138.496C73.5464 138.315 73.6744 138.08 73.6744 137.792C73.6744 137.547 73.589 137.36 73.4184 137.232C73.2584 137.093 73.013 136.992 72.6824 136.928L71.0824 136.624C70.421 136.496 69.9144 136.256 69.5624 135.904C69.221 135.541 69.0504 135.077 69.0504 134.512C69.0504 134 69.189 133.557 69.4664 133.184C69.7544 132.811 70.149 132.523 70.6504 132.32C71.1517 132.117 71.7277 132.016 72.3784 132.016C72.7517 132.016 73.1144 132.053 73.4664 132.128C73.8184 132.192 74.149 132.293 74.4584 132.432C74.7784 132.56 75.0557 132.731 75.2904 132.944L74.7464 134.256C74.5437 134.085 74.309 133.941 74.0424 133.824C73.7757 133.696 73.4984 133.6 73.2104 133.536C72.933 133.461 72.661 133.424 72.3944 133.424C71.8717 133.424 71.4824 133.515 71.2264 133.696C70.981 133.877 70.8584 134.117 70.8584 134.416C70.8584 134.64 70.933 134.827 71.0824 134.976C71.2317 135.125 71.461 135.227 71.7704 135.28L73.3704 135.584C74.0637 135.712 74.5864 135.947 74.9384 136.288C75.301 136.629 75.4824 137.088 75.4824 137.664C75.4824 138.187 75.3437 138.635 75.0664 139.008C74.789 139.381 74.3997 139.669 73.8984 139.872C73.397 140.064 72.8104 140.16 72.1384 140.16ZM83.8229 142.64C82.7989 142.64 81.8602 142.475 81.0069 142.144C80.1642 141.824 79.4335 141.355 78.8149 140.736C78.2069 140.128 77.7375 139.403 77.4069 138.56C77.0762 137.707 76.9109 136.757 76.9109 135.712C76.9109 134.635 77.0815 133.659 77.4229 132.784C77.7642 131.909 78.2549 131.157 78.8949 130.528C79.5349 129.899 80.2922 129.413 81.1669 129.072C82.0522 128.731 83.0282 128.56 84.0949 128.56C85.3535 128.56 86.4522 128.811 87.3909 129.312C88.3402 129.803 89.0762 130.496 89.5989 131.392C90.1215 132.277 90.3829 133.323 90.3829 134.528C90.3829 135.456 90.2495 136.261 89.9829 136.944C89.7269 137.616 89.3642 138.139 88.8949 138.512C88.4362 138.875 87.8975 139.056 87.2789 139.056C86.6282 139.056 86.1215 138.88 85.7589 138.528C85.4069 138.165 85.2202 137.664 85.1989 137.024L85.6949 136.864C85.4282 137.589 85.0495 138.139 84.5589 138.512C84.0682 138.875 83.5349 139.056 82.9589 139.056C82.1055 139.056 81.4442 138.789 80.9749 138.256C80.5055 137.723 80.2709 136.992 80.2709 136.064C80.2709 135.285 80.4149 134.592 80.7029 133.984C81.0015 133.376 81.4069 132.896 81.9189 132.544C82.4415 132.192 83.0335 132.016 83.6949 132.016C84.2602 132.016 84.7242 132.16 85.0869 132.448C85.4495 132.725 85.6949 133.136 85.8229 133.68H85.5509L85.8229 132.176H87.3109L86.6389 136.032C86.6069 136.203 86.5802 136.363 86.5589 136.512C86.5482 136.651 86.5429 136.779 86.5429 136.896C86.5429 137.227 86.6122 137.472 86.7509 137.632C86.8895 137.792 87.0975 137.872 87.3749 137.872C87.7269 137.872 88.0309 137.733 88.2869 137.456C88.5535 137.179 88.7615 136.789 88.9109 136.288C89.0602 135.776 89.1349 135.189 89.1349 134.528C89.1349 133.536 88.9269 132.688 88.5109 131.984C88.1055 131.28 87.5242 130.741 86.7669 130.368C86.0202 129.984 85.1242 129.792 84.0789 129.792C82.9162 129.792 81.9029 130.037 81.0389 130.528C80.1749 131.008 79.5029 131.691 79.0229 132.576C78.5429 133.461 78.3029 134.507 78.3029 135.712C78.3029 136.896 78.5269 137.915 78.9749 138.768C79.4335 139.621 80.0735 140.272 80.8949 140.72C81.7269 141.179 82.7029 141.408 83.8229 141.408C84.6229 141.408 85.3535 141.291 86.0149 141.056C86.6762 140.832 87.2415 140.507 87.7109 140.08L88.3509 141.136C88.0095 141.456 87.6042 141.728 87.1349 141.952C86.6762 142.176 86.1642 142.347 85.5989 142.464C85.0442 142.581 84.4522 142.64 83.8229 142.64ZM83.2469 137.792C83.6522 137.792 84.0095 137.669 84.3189 137.424C84.6389 137.168 84.8842 136.821 85.0549 136.384C85.2362 135.936 85.3269 135.424 85.3269 134.848C85.3269 134.336 85.2149 133.952 84.9909 133.696C84.7669 133.429 84.4202 133.296 83.9509 133.296C83.5455 133.296 83.1829 133.413 82.8629 133.648C82.5429 133.883 82.2922 134.208 82.1109 134.624C81.9295 135.029 81.8389 135.504 81.8389 136.048C81.8389 136.613 81.9615 137.045 82.2069 137.344C82.4522 137.643 82.7989 137.792 83.2469 137.792ZM92.162 130.496V128.544H94.402V130.496H92.162ZM92.29 140V132.176H94.29V140H92.29ZM96.3681 140V132.176H98.3201V133.744H98.1441C98.3788 133.179 98.7415 132.752 99.2321 132.464C99.7335 132.165 100.299 132.016 100.928 132.016C101.557 132.016 102.075 132.133 102.48 132.368C102.885 132.603 103.189 132.96 103.392 133.44C103.595 133.909 103.696 134.507 103.696 135.232V140H101.696V135.328C101.696 134.923 101.643 134.592 101.536 134.336C101.44 134.08 101.285 133.893 101.072 133.776C100.869 133.648 100.608 133.584 100.288 133.584C99.9041 133.584 99.5681 133.669 99.2801 133.84C98.9921 134 98.7681 134.235 98.6081 134.544C98.4481 134.843 98.3681 135.195 98.3681 135.6V140H96.3681ZM106.256 140V133.68H104.752V132.176H106.832L106.256 132.704V132.16C106.256 131.051 106.544 130.213 107.12 129.648C107.706 129.083 108.613 128.763 109.84 128.688L110.624 128.64L110.752 130.112L110.016 130.16C109.589 130.181 109.248 130.261 108.992 130.4C108.736 130.528 108.549 130.709 108.432 130.944C108.314 131.179 108.256 131.477 108.256 131.84V132.432L108 132.176H110.384V133.68H108.256V140H106.256ZM114.921 140.16C114.11 140.16 113.406 139.995 112.809 139.664C112.211 139.333 111.747 138.864 111.417 138.256C111.086 137.637 110.921 136.912 110.921 136.08C110.921 135.248 111.086 134.528 111.417 133.92C111.747 133.312 112.211 132.843 112.809 132.512C113.406 132.181 114.11 132.016 114.921 132.016C115.731 132.016 116.435 132.181 117.033 132.512C117.63 132.843 118.094 133.312 118.425 133.92C118.755 134.528 118.921 135.248 118.921 136.08C118.921 136.912 118.755 137.637 118.425 138.256C118.094 138.864 117.63 139.333 117.033 139.664C116.435 139.995 115.731 140.16 114.921 140.16ZM114.921 138.64C115.518 138.64 115.998 138.427 116.361 138C116.723 137.563 116.905 136.923 116.905 136.08C116.905 135.227 116.723 134.592 116.361 134.176C115.998 133.749 115.518 133.536 114.921 133.536C114.323 133.536 113.843 133.749 113.481 134.176C113.118 134.592 112.937 135.227 112.937 136.08C112.937 136.923 113.118 137.563 113.481 138C113.843 138.427 114.323 138.64 114.921 138.64ZM120.098 140V137.776H122.338V140H120.098ZM127.562 140.16C126.741 140.16 126.026 139.995 125.418 139.664C124.81 139.323 124.341 138.843 124.01 138.224C123.68 137.605 123.514 136.88 123.514 136.048C123.514 135.216 123.68 134.501 124.01 133.904C124.341 133.296 124.81 132.832 125.418 132.512C126.026 132.181 126.741 132.016 127.562 132.016C128.064 132.016 128.56 132.096 129.05 132.256C129.541 132.416 129.946 132.64 130.266 132.928L129.674 134.32C129.397 134.075 129.082 133.888 128.73 133.76C128.389 133.632 128.058 133.568 127.738 133.568C127.045 133.568 126.506 133.787 126.122 134.224C125.749 134.651 125.562 135.264 125.562 136.064C125.562 136.853 125.749 137.477 126.122 137.936C126.506 138.384 127.045 138.608 127.738 138.608C128.048 138.608 128.378 138.544 128.73 138.416C129.082 138.288 129.397 138.096 129.674 137.84L130.266 139.248C129.946 139.525 129.536 139.749 129.034 139.92C128.544 140.08 128.053 140.16 127.562 140.16ZM134.905 140.16C134.094 140.16 133.39 139.995 132.793 139.664C132.196 139.333 131.732 138.864 131.401 138.256C131.07 137.637 130.905 136.912 130.905 136.08C130.905 135.248 131.07 134.528 131.401 133.92C131.732 133.312 132.196 132.843 132.793 132.512C133.39 132.181 134.094 132.016 134.905 132.016C135.716 132.016 136.42 132.181 137.017 132.512C137.614 132.843 138.078 133.312 138.409 133.92C138.74 134.528 138.905 135.248 138.905 136.08C138.905 136.912 138.74 137.637 138.409 138.256C138.078 138.864 137.614 139.333 137.017 139.664C136.42 139.995 135.716 140.16 134.905 140.16ZM134.905 138.64C135.502 138.64 135.982 138.427 136.345 138C136.708 137.563 136.889 136.923 136.889 136.08C136.889 135.227 136.708 134.592 136.345 134.176C135.982 133.749 135.502 133.536 134.905 133.536C134.308 133.536 133.828 133.749 133.465 134.176C133.102 134.592 132.921 135.227 132.921 136.08C132.921 136.923 133.102 137.563 133.465 138C133.828 138.427 134.308 138.64 134.905 138.64ZM140.588 140V132.176H142.54V133.744H142.364C142.502 133.381 142.694 133.072 142.94 132.816C143.185 132.56 143.478 132.363 143.82 132.224C144.161 132.085 144.54 132.016 144.956 132.016C145.585 132.016 146.102 132.165 146.508 132.464C146.913 132.763 147.196 133.221 147.356 133.84H147.132C147.345 133.275 147.697 132.832 148.188 132.512C148.678 132.181 149.244 132.016 149.884 132.016C150.481 132.016 150.972 132.133 151.356 132.368C151.75 132.603 152.044 132.96 152.236 133.44C152.428 133.909 152.524 134.507 152.524 135.232V140H150.524V135.312C150.524 134.715 150.422 134.277 150.22 134C150.028 133.723 149.697 133.584 149.228 133.584C148.886 133.584 148.588 133.669 148.332 133.84C148.076 134 147.878 134.235 147.74 134.544C147.612 134.853 147.548 135.227 147.548 135.664V140H145.548V135.312C145.548 134.715 145.446 134.277 145.244 134C145.052 133.723 144.726 133.584 144.268 133.584C143.916 133.584 143.612 133.669 143.356 133.84C143.11 134 142.918 134.235 142.78 134.544C142.652 134.853 142.588 135.227 142.588 135.664V140H140.588Z" fill="#004167"/>
</svg>
