<svg width="206" height="45" viewBox="0 0 206 45" fill="none" xmlns="http://www.w3.org/2000/svg">
<rect width="206" height="45" rx="22.5" fill="#FED766"/>
<mask id="path-2-inside-1_35_135" fill="white">
<path d="M45.3966 31V16.9H51.8566C53.3632 16.9 54.5232 17.2267 55.3366 17.88C56.1632 18.5333 56.5766 19.4267 56.5766 20.56C56.5766 21.4 56.3366 22.1133 55.8566 22.7C55.3766 23.2867 54.7166 23.68 53.8766 23.88V23.56C54.5299 23.6667 55.0832 23.8733 55.5366 24.18C55.9899 24.4867 56.3366 24.88 56.5766 25.36C56.8299 25.84 56.9566 26.3933 56.9566 27.02C56.9566 27.8467 56.7566 28.56 56.3566 29.16C55.9699 29.76 55.4099 30.22 54.6766 30.54C53.9566 30.8467 53.0899 31 52.0766 31H45.3966ZM48.3566 28.7H51.6566C51.9766 28.7 52.2632 28.6733 52.5166 28.62C52.7699 28.5667 52.9832 28.4933 53.1566 28.4C53.3432 28.3067 53.4966 28.1867 53.6166 28.04C53.7366 27.88 53.8232 27.7 53.8766 27.5C53.9432 27.3 53.9766 27.08 53.9766 26.84C53.9766 26.5867 53.9432 26.3667 53.8766 26.18C53.8232 25.98 53.7366 25.8067 53.6166 25.66C53.4966 25.5133 53.3432 25.3933 53.1566 25.3C52.9832 25.1933 52.7699 25.12 52.5166 25.08C52.2632 25.0267 51.9766 25 51.6566 25H48.3566V28.7ZM48.3566 22.7H51.3166C52.0899 22.7 52.6632 22.5533 53.0366 22.26C53.4099 21.9667 53.5966 21.5267 53.5966 20.94C53.5966 20.3667 53.4099 19.9333 53.0366 19.64C52.6632 19.3467 52.0899 19.2 51.3166 19.2H48.3566V22.7ZM65.8428 31.22C64.8028 31.22 63.8495 31.0467 62.9828 30.7C62.1295 30.3533 61.3961 29.86 60.7828 29.22C60.1695 28.58 59.6961 27.8133 59.3628 26.92C59.0428 26.0267 58.8828 25.0333 58.8828 23.94C58.8828 22.8333 59.0428 21.84 59.3628 20.96C59.6961 20.0667 60.1695 19.3067 60.7828 18.68C61.3961 18.04 62.1295 17.5467 62.9828 17.2C63.8495 16.8533 64.8028 16.68 65.8428 16.68C66.8961 16.68 67.8495 16.8533 68.7028 17.2C69.5561 17.5467 70.2895 18.0333 70.9028 18.66C71.5161 19.2867 71.9895 20.0467 72.3228 20.94C72.6561 21.8333 72.8228 22.8267 72.8228 23.92C72.8228 25.0267 72.6561 26.0267 72.3228 26.92C71.9895 27.8133 71.5161 28.58 70.9028 29.22C70.2895 29.86 69.5561 30.3533 68.7028 30.7C67.8495 31.0467 66.8961 31.22 65.8428 31.22ZM65.8428 28.58C66.6428 28.58 67.3161 28.4 67.8628 28.04C68.4095 27.6667 68.8295 27.1333 69.1228 26.44C69.4295 25.7333 69.5828 24.9 69.5828 23.94C69.5828 22.9667 69.4361 22.1333 69.1428 21.44C68.8495 20.7467 68.4228 20.22 67.8628 19.86C67.3028 19.5 66.6295 19.32 65.8428 19.32C65.0695 19.32 64.4028 19.5 63.8428 19.86C63.2828 20.22 62.8561 20.7467 62.5628 21.44C62.2695 22.1333 62.1228 22.9667 62.1228 23.94C62.1228 24.9 62.2695 25.7333 62.5628 26.44C62.8561 27.1333 63.2828 27.6667 63.8428 28.04C64.4028 28.4 65.0695 28.58 65.8428 28.58ZM81.7608 31.22C80.7208 31.22 79.7674 31.0467 78.9008 30.7C78.0474 30.3533 77.3141 29.86 76.7008 29.22C76.0874 28.58 75.6141 27.8133 75.2808 26.92C74.9608 26.0267 74.8008 25.0333 74.8008 23.94C74.8008 22.8333 74.9608 21.84 75.2808 20.96C75.6141 20.0667 76.0874 19.3067 76.7008 18.68C77.3141 18.04 78.0474 17.5467 78.9008 17.2C79.7674 16.8533 80.7208 16.68 81.7608 16.68C82.8141 16.68 83.7674 16.8533 84.6208 17.2C85.4741 17.5467 86.2074 18.0333 86.8208 18.66C87.4341 19.2867 87.9074 20.0467 88.2408 20.94C88.5741 21.8333 88.7408 22.8267 88.7408 23.92C88.7408 25.0267 88.5741 26.0267 88.2408 26.92C87.9074 27.8133 87.4341 28.58 86.8208 29.22C86.2074 29.86 85.4741 30.3533 84.6208 30.7C83.7674 31.0467 82.8141 31.22 81.7608 31.22ZM81.7608 28.58C82.5608 28.58 83.2341 28.4 83.7808 28.04C84.3274 27.6667 84.7474 27.1333 85.0408 26.44C85.3474 25.7333 85.5008 24.9 85.5008 23.94C85.5008 22.9667 85.3541 22.1333 85.0608 21.44C84.7674 20.7467 84.3408 20.22 83.7808 19.86C83.2208 19.5 82.5474 19.32 81.7608 19.32C80.9874 19.32 80.3208 19.5 79.7608 19.86C79.2008 20.22 78.7741 20.7467 78.4808 21.44C78.1874 22.1333 78.0408 22.9667 78.0408 23.94C78.0408 24.9 78.1874 25.7333 78.4808 26.44C78.7741 27.1333 79.2008 27.6667 79.7608 28.04C80.3208 28.4 80.9874 28.58 81.7608 28.58ZM91.1388 31V16.9H94.2388V23.04H94.2788L100.139 16.9H103.859L96.6588 24.3L96.6788 22.96L104.139 31H100.379L94.2788 24.56H94.2388V31H91.1388ZM110.436 31V16.9H112.736L120.316 26.56H119.776V16.9H122.656V31H120.376L112.796 21.32H113.316V31H110.436ZM132.034 31.22C130.994 31.22 130.041 31.0467 129.174 30.7C128.321 30.3533 127.588 29.86 126.974 29.22C126.361 28.58 125.888 27.8133 125.554 26.92C125.234 26.0267 125.074 25.0333 125.074 23.94C125.074 22.8333 125.234 21.84 125.554 20.96C125.888 20.0667 126.361 19.3067 126.974 18.68C127.588 18.04 128.321 17.5467 129.174 17.2C130.041 16.8533 130.994 16.68 132.034 16.68C133.088 16.68 134.041 16.8533 134.894 17.2C135.748 17.5467 136.481 18.0333 137.094 18.66C137.708 19.2867 138.181 20.0467 138.514 20.94C138.848 21.8333 139.014 22.8267 139.014 23.92C139.014 25.0267 138.848 26.0267 138.514 26.92C138.181 27.8133 137.708 28.58 137.094 29.22C136.481 29.86 135.748 30.3533 134.894 30.7C134.041 31.0467 133.088 31.22 132.034 31.22ZM132.034 28.58C132.834 28.58 133.508 28.4 134.054 28.04C134.601 27.6667 135.021 27.1333 135.314 26.44C135.621 25.7333 135.774 24.9 135.774 23.94C135.774 22.9667 135.628 22.1333 135.334 21.44C135.041 20.7467 134.614 20.22 134.054 19.86C133.494 19.5 132.821 19.32 132.034 19.32C131.261 19.32 130.594 19.5 130.034 19.86C129.474 20.22 129.048 20.7467 128.754 21.44C128.461 22.1333 128.314 22.9667 128.314 23.94C128.314 24.9 128.461 25.7333 128.754 26.44C129.048 27.1333 129.474 27.6667 130.034 28.04C130.594 28.4 131.261 28.58 132.034 28.58ZM144.981 31L139.961 16.9H143.141L146.801 27.78H145.941L149.801 16.9H152.041L155.741 27.78H155.001L158.721 16.9H161.721L156.661 31H154.141L150.601 20.98H151.081L147.501 31H144.981Z"/>
</mask>
<path d="M45.3966 31V16.9H51.8566C53.3632 16.9 54.5232 17.2267 55.3366 17.88C56.1632 18.5333 56.5766 19.4267 56.5766 20.56C56.5766 21.4 56.3366 22.1133 55.8566 22.7C55.3766 23.2867 54.7166 23.68 53.8766 23.88V23.56C54.5299 23.6667 55.0832 23.8733 55.5366 24.18C55.9899 24.4867 56.3366 24.88 56.5766 25.36C56.8299 25.84 56.9566 26.3933 56.9566 27.02C56.9566 27.8467 56.7566 28.56 56.3566 29.16C55.9699 29.76 55.4099 30.22 54.6766 30.54C53.9566 30.8467 53.0899 31 52.0766 31H45.3966ZM48.3566 28.7H51.6566C51.9766 28.7 52.2632 28.6733 52.5166 28.62C52.7699 28.5667 52.9832 28.4933 53.1566 28.4C53.3432 28.3067 53.4966 28.1867 53.6166 28.04C53.7366 27.88 53.8232 27.7 53.8766 27.5C53.9432 27.3 53.9766 27.08 53.9766 26.84C53.9766 26.5867 53.9432 26.3667 53.8766 26.18C53.8232 25.98 53.7366 25.8067 53.6166 25.66C53.4966 25.5133 53.3432 25.3933 53.1566 25.3C52.9832 25.1933 52.7699 25.12 52.5166 25.08C52.2632 25.0267 51.9766 25 51.6566 25H48.3566V28.7ZM48.3566 22.7H51.3166C52.0899 22.7 52.6632 22.5533 53.0366 22.26C53.4099 21.9667 53.5966 21.5267 53.5966 20.94C53.5966 20.3667 53.4099 19.9333 53.0366 19.64C52.6632 19.3467 52.0899 19.2 51.3166 19.2H48.3566V22.7ZM65.8428 31.22C64.8028 31.22 63.8495 31.0467 62.9828 30.7C62.1295 30.3533 61.3961 29.86 60.7828 29.22C60.1695 28.58 59.6961 27.8133 59.3628 26.92C59.0428 26.0267 58.8828 25.0333 58.8828 23.94C58.8828 22.8333 59.0428 21.84 59.3628 20.96C59.6961 20.0667 60.1695 19.3067 60.7828 18.68C61.3961 18.04 62.1295 17.5467 62.9828 17.2C63.8495 16.8533 64.8028 16.68 65.8428 16.68C66.8961 16.68 67.8495 16.8533 68.7028 17.2C69.5561 17.5467 70.2895 18.0333 70.9028 18.66C71.5161 19.2867 71.9895 20.0467 72.3228 20.94C72.6561 21.8333 72.8228 22.8267 72.8228 23.92C72.8228 25.0267 72.6561 26.0267 72.3228 26.92C71.9895 27.8133 71.5161 28.58 70.9028 29.22C70.2895 29.86 69.5561 30.3533 68.7028 30.7C67.8495 31.0467 66.8961 31.22 65.8428 31.22ZM65.8428 28.58C66.6428 28.58 67.3161 28.4 67.8628 28.04C68.4095 27.6667 68.8295 27.1333 69.1228 26.44C69.4295 25.7333 69.5828 24.9 69.5828 23.94C69.5828 22.9667 69.4361 22.1333 69.1428 21.44C68.8495 20.7467 68.4228 20.22 67.8628 19.86C67.3028 19.5 66.6295 19.32 65.8428 19.32C65.0695 19.32 64.4028 19.5 63.8428 19.86C63.2828 20.22 62.8561 20.7467 62.5628 21.44C62.2695 22.1333 62.1228 22.9667 62.1228 23.94C62.1228 24.9 62.2695 25.7333 62.5628 26.44C62.8561 27.1333 63.2828 27.6667 63.8428 28.04C64.4028 28.4 65.0695 28.58 65.8428 28.58ZM81.7608 31.22C80.7208 31.22 79.7674 31.0467 78.9008 30.7C78.0474 30.3533 77.3141 29.86 76.7008 29.22C76.0874 28.58 75.6141 27.8133 75.2808 26.92C74.9608 26.0267 74.8008 25.0333 74.8008 23.94C74.8008 22.8333 74.9608 21.84 75.2808 20.96C75.6141 20.0667 76.0874 19.3067 76.7008 18.68C77.3141 18.04 78.0474 17.5467 78.9008 17.2C79.7674 16.8533 80.7208 16.68 81.7608 16.68C82.8141 16.68 83.7674 16.8533 84.6208 17.2C85.4741 17.5467 86.2074 18.0333 86.8208 18.66C87.4341 19.2867 87.9074 20.0467 88.2408 20.94C88.5741 21.8333 88.7408 22.8267 88.7408 23.92C88.7408 25.0267 88.5741 26.0267 88.2408 26.92C87.9074 27.8133 87.4341 28.58 86.8208 29.22C86.2074 29.86 85.4741 30.3533 84.6208 30.7C83.7674 31.0467 82.8141 31.22 81.7608 31.22ZM81.7608 28.58C82.5608 28.58 83.2341 28.4 83.7808 28.04C84.3274 27.6667 84.7474 27.1333 85.0408 26.44C85.3474 25.7333 85.5008 24.9 85.5008 23.94C85.5008 22.9667 85.3541 22.1333 85.0608 21.44C84.7674 20.7467 84.3408 20.22 83.7808 19.86C83.2208 19.5 82.5474 19.32 81.7608 19.32C80.9874 19.32 80.3208 19.5 79.7608 19.86C79.2008 20.22 78.7741 20.7467 78.4808 21.44C78.1874 22.1333 78.0408 22.9667 78.0408 23.94C78.0408 24.9 78.1874 25.7333 78.4808 26.44C78.7741 27.1333 79.2008 27.6667 79.7608 28.04C80.3208 28.4 80.9874 28.58 81.7608 28.58ZM91.1388 31V16.9H94.2388V23.04H94.2788L100.139 16.9H103.859L96.6588 24.3L96.6788 22.96L104.139 31H100.379L94.2788 24.56H94.2388V31H91.1388ZM110.436 31V16.9H112.736L120.316 26.56H119.776V16.9H122.656V31H120.376L112.796 21.32H113.316V31H110.436ZM132.034 31.22C130.994 31.22 130.041 31.0467 129.174 30.7C128.321 30.3533 127.588 29.86 126.974 29.22C126.361 28.58 125.888 27.8133 125.554 26.92C125.234 26.0267 125.074 25.0333 125.074 23.94C125.074 22.8333 125.234 21.84 125.554 20.96C125.888 20.0667 126.361 19.3067 126.974 18.68C127.588 18.04 128.321 17.5467 129.174 17.2C130.041 16.8533 130.994 16.68 132.034 16.68C133.088 16.68 134.041 16.8533 134.894 17.2C135.748 17.5467 136.481 18.0333 137.094 18.66C137.708 19.2867 138.181 20.0467 138.514 20.94C138.848 21.8333 139.014 22.8267 139.014 23.92C139.014 25.0267 138.848 26.0267 138.514 26.92C138.181 27.8133 137.708 28.58 137.094 29.22C136.481 29.86 135.748 30.3533 134.894 30.7C134.041 31.0467 133.088 31.22 132.034 31.22ZM132.034 28.58C132.834 28.58 133.508 28.4 134.054 28.04C134.601 27.6667 135.021 27.1333 135.314 26.44C135.621 25.7333 135.774 24.9 135.774 23.94C135.774 22.9667 135.628 22.1333 135.334 21.44C135.041 20.7467 134.614 20.22 134.054 19.86C133.494 19.5 132.821 19.32 132.034 19.32C131.261 19.32 130.594 19.5 130.034 19.86C129.474 20.22 129.048 20.7467 128.754 21.44C128.461 22.1333 128.314 22.9667 128.314 23.94C128.314 24.9 128.461 25.7333 128.754 26.44C129.048 27.1333 129.474 27.6667 130.034 28.04C130.594 28.4 131.261 28.58 132.034 28.58ZM144.981 31L139.961 16.9H143.141L146.801 27.78H145.941L149.801 16.9H152.041L155.741 27.78H155.001L158.721 16.9H161.721L156.661 31H154.141L150.601 20.98H151.081L147.501 31H144.981Z" fill="#004167"/>
<path d="M45.3966 31H44.3966V32H45.3966V31ZM45.3966 16.9V15.9H44.3966V16.9H45.3966ZM55.3366 17.88L54.7103 18.6596L54.7165 18.6646L55.3366 17.88ZM53.8766 23.88H52.8766V25.146L54.1082 24.8528L53.8766 23.88ZM53.8766 23.56L54.0377 22.5731L52.8766 22.3835V23.56H53.8766ZM55.5366 24.18L54.9763 25.0083V25.0083L55.5366 24.18ZM56.5766 25.36L55.6821 25.8072L55.687 25.817L55.6922 25.8268L56.5766 25.36ZM56.3566 29.16L55.5245 28.6053L55.5202 28.6118L55.516 28.6183L56.3566 29.16ZM54.6766 30.54L55.0684 31.4601L55.0765 31.4565L54.6766 30.54ZM48.3566 28.7H47.3566V29.7H48.3566V28.7ZM53.1566 28.4L52.7094 27.5056L52.6958 27.5123L52.6825 27.5195L53.1566 28.4ZM53.6166 28.04L54.3905 28.6732L54.4039 28.6569L54.4166 28.64L53.6166 28.04ZM53.8766 27.5L52.9279 27.1838L52.9182 27.2128L52.9103 27.2423L53.8766 27.5ZM53.8766 26.18L52.9103 26.4377L52.921 26.4775L52.9348 26.5163L53.8766 26.18ZM53.1566 25.3L52.6325 26.1517L52.67 26.1747L52.7094 26.1944L53.1566 25.3ZM52.5166 25.08L52.3106 26.0585L52.3355 26.0638L52.3606 26.0678L52.5166 25.08ZM48.3566 25V24H47.3566V25H48.3566ZM48.3566 22.7H47.3566V23.7H48.3566V22.7ZM53.0366 22.26L53.6544 23.0463L53.0366 22.26ZM53.0366 19.64L52.4187 20.4263H52.4187L53.0366 19.64ZM48.3566 19.2V18.2H47.3566V19.2H48.3566ZM46.3966 31V16.9H44.3966V31H46.3966ZM45.3966 17.9H51.8566V15.9H45.3966V17.9ZM51.8566 17.9C53.2339 17.9 54.1385 18.2003 54.7103 18.6596L55.9628 17.1004C54.908 16.253 53.4926 15.9 51.8566 15.9V17.9ZM54.7165 18.6646C55.2831 19.1123 55.5766 19.7059 55.5766 20.56H57.5766C57.5766 19.1474 57.0434 17.9543 55.9566 17.0954L54.7165 18.6646ZM55.5766 20.56C55.5766 21.1957 55.4004 21.6783 55.0826 22.0668L56.6305 23.3332C57.2727 22.5484 57.5766 21.6043 57.5766 20.56H55.5766ZM55.0826 22.0668C54.7603 22.4608 54.3029 22.7505 53.6449 22.9072L54.1082 24.8528C55.1302 24.6095 55.9929 24.1126 56.6305 23.3332L55.0826 22.0668ZM54.8766 23.88V23.56H52.8766V23.88H54.8766ZM53.7154 24.5469C54.2552 24.6351 54.6654 24.798 54.9763 25.0083L56.0969 23.3517C55.5011 22.9487 54.8046 22.6983 54.0377 22.5731L53.7154 24.5469ZM54.9763 25.0083C55.2903 25.2207 55.5205 25.484 55.6821 25.8072L57.471 24.9128C57.1526 24.276 56.6895 23.7526 56.0969 23.3517L54.9763 25.0083ZM55.6922 25.8268C55.8586 26.1421 55.9566 26.5307 55.9566 27.02H57.9566C57.9566 26.2559 57.8012 25.5379 57.4609 24.8932L55.6922 25.8268ZM55.9566 27.02C55.9566 27.679 55.7996 28.1927 55.5245 28.6053L57.1886 29.7147C57.7135 28.9273 57.9566 28.0144 57.9566 27.02H55.9566ZM55.516 28.6183C55.2487 29.0331 54.852 29.3724 54.2766 29.6235L55.0765 31.4565C55.9678 31.0676 56.6911 30.4869 57.1971 29.7017L55.516 28.6183ZM54.2847 29.62C53.7193 29.8608 52.9932 30 52.0766 30V32C53.1866 32 54.1938 31.8325 55.0684 31.46L54.2847 29.62ZM52.0766 30H45.3966V32H52.0766V30ZM48.3566 29.7H51.6566V27.7H48.3566V29.7ZM51.6566 29.7C52.0303 29.7 52.3878 29.669 52.7226 29.5985L52.3106 27.6415C52.1386 27.6776 51.9228 27.7 51.6566 27.7V29.7ZM52.7226 29.5985C53.0419 29.5313 53.3514 29.4308 53.6307 29.2805L52.6825 27.5195C52.615 27.5558 52.4979 27.602 52.3106 27.6415L52.7226 29.5985ZM53.6038 29.2944C53.9037 29.1445 54.1726 28.9396 54.3905 28.6732L52.8426 27.4068C52.8206 27.4337 52.7828 27.4689 52.7094 27.5056L53.6038 29.2944ZM54.4166 28.64C54.6161 28.374 54.7577 28.077 54.8428 27.7577L52.9103 27.2423C52.8888 27.323 52.8571 27.386 52.8166 27.44L54.4166 28.64ZM54.8252 27.8162C54.9302 27.5012 54.9766 27.1728 54.9766 26.84H52.9766C52.9766 26.9872 52.9562 27.0988 52.9279 27.1838L54.8252 27.8162ZM54.9766 26.84C54.9766 26.5024 54.9326 26.1636 54.8183 25.8437L52.9348 26.5163C52.9539 26.5698 52.9766 26.6709 52.9766 26.84H54.9766ZM54.8428 25.9223C54.7562 25.5977 54.6086 25.2933 54.3905 25.0268L52.8426 26.2932C52.8645 26.32 52.8902 26.3623 52.9103 26.4377L54.8428 25.9223ZM54.3905 25.0268C54.1726 24.7604 53.9037 24.5555 53.6038 24.4056L52.7094 26.1944C52.7828 26.2311 52.8206 26.2663 52.8426 26.2932L54.3905 25.0268ZM53.6807 24.4483C53.3697 24.257 53.0236 24.1477 52.6725 24.0922L52.3606 26.0678C52.5161 26.0923 52.5968 26.1297 52.6325 26.1517L53.6807 24.4483ZM52.7226 24.1014C52.3878 24.031 52.0303 24 51.6566 24V26C51.9228 26 52.1386 26.0224 52.3106 26.0585L52.7226 24.1014ZM51.6566 24H48.3566V26H51.6566V24ZM47.3566 25V28.7H49.3566V25H47.3566ZM48.3566 23.7H51.3166V21.7H48.3566V23.7ZM51.3166 23.7C52.1838 23.7 53.0243 23.5414 53.6544 23.0463L52.4187 21.4737C52.3021 21.5653 51.996 21.7 51.3166 21.7V23.7ZM53.6544 23.0463C54.3255 22.519 54.5966 21.7537 54.5966 20.94H52.5966C52.5966 21.2996 52.4943 21.4143 52.4187 21.4737L53.6544 23.0463ZM54.5966 20.94C54.5966 20.1307 54.3197 19.3764 53.6544 18.8537L52.4187 20.4263C52.5001 20.4902 52.5966 20.6027 52.5966 20.94H54.5966ZM53.6544 18.8537C53.0243 18.3586 52.1838 18.2 51.3166 18.2V20.2C51.996 20.2 52.3021 20.3347 52.4187 20.4263L53.6544 18.8537ZM51.3166 18.2H48.3566V20.2H51.3166V18.2ZM47.3566 19.2V22.7H49.3566V19.2H47.3566ZM62.9828 30.7L62.6064 31.6265L62.6114 31.6285L62.9828 30.7ZM60.7828 29.22L60.0608 29.9119L60.7828 29.22ZM59.3628 26.92L58.4213 27.2573L58.4259 27.2696L59.3628 26.92ZM59.3628 20.96L58.4259 20.6104L58.423 20.6183L59.3628 20.96ZM60.7828 18.68L61.4975 19.3795L61.5048 19.3719L60.7828 18.68ZM62.9828 17.2L62.6114 16.2715L62.6064 16.2735L62.9828 17.2ZM68.7028 17.2L69.0792 16.2735V16.2735L68.7028 17.2ZM72.3228 20.94L73.2597 20.5904V20.5904L72.3228 20.94ZM72.3228 26.92L73.2597 27.2696L72.3228 26.92ZM70.9028 29.22L71.6248 29.9119L70.9028 29.22ZM68.7028 30.7L68.3264 29.7735L68.7028 30.7ZM67.8628 28.04L68.4128 28.8752L68.4198 28.8705L68.4268 28.8658L67.8628 28.04ZM69.1228 26.44L68.2054 26.0419L68.2018 26.0504L69.1228 26.44ZM69.1428 21.44L68.2218 21.8296V21.8296L69.1428 21.44ZM62.5628 21.44L63.4838 21.8296L62.5628 21.44ZM62.5628 26.44L61.6392 26.8234L61.6418 26.8296L62.5628 26.44ZM63.8428 28.04L63.2881 28.872L63.295 28.8767L63.3021 28.8812L63.8428 28.04ZM65.8428 30.22C64.9155 30.22 64.09 30.0658 63.3542 29.7715L62.6114 31.6285C63.609 32.0275 64.6901 32.22 65.8428 32.22V30.22ZM63.3592 29.7735C62.6311 29.4777 62.0169 29.0625 61.5048 28.5281L60.0608 29.9119C60.7754 30.6575 61.6279 31.2289 62.6064 31.6265L63.3592 29.7735ZM61.5048 28.5281C60.9926 27.9936 60.5891 27.346 60.2997 26.5704L58.4259 27.2696C58.8032 28.2807 59.3463 29.1664 60.0608 29.9119L61.5048 28.5281ZM60.3042 26.5828C60.0284 25.8127 59.8828 24.9356 59.8828 23.94H57.8828C57.8828 25.1311 58.0572 26.2406 58.4214 27.2572L60.3042 26.5828ZM59.8828 23.94C59.8828 22.9292 60.0289 22.0543 60.3026 21.3017L58.423 20.6183C58.0567 21.6257 57.8828 22.7375 57.8828 23.94H59.8828ZM60.2997 21.3096C60.5885 20.5356 60.9901 19.8978 61.4975 19.3795L60.0681 17.9805C59.3488 18.7155 58.8038 19.5978 58.4259 20.6104L60.2997 21.3096ZM61.5048 19.3719C62.0169 18.8375 62.6311 18.4223 63.3592 18.1265L62.6064 16.2735C61.6279 16.6711 60.7754 17.2425 60.0608 17.9881L61.5048 19.3719ZM63.3542 18.1285C64.09 17.8342 64.9155 17.68 65.8428 17.68V15.68C64.6901 15.68 63.609 15.8725 62.6114 16.2715L63.3542 18.1285ZM65.8428 17.68C66.7855 17.68 67.6086 17.8348 68.3264 18.1265L69.0792 16.2735C68.0904 15.8718 67.0068 15.68 65.8428 15.68V17.68ZM68.3264 18.1265C69.0592 18.4241 69.6756 18.8358 70.1881 19.3595L71.6175 17.9605C70.9033 17.2309 70.0531 16.6692 69.0792 16.2735L68.3264 18.1265ZM70.1881 19.3595C70.6955 19.8778 71.0971 20.5156 71.3859 21.2896L73.2597 20.5904C72.8819 19.5778 72.3368 18.6955 71.6175 17.9605L70.1881 19.3595ZM71.3859 21.2896C71.6719 22.056 71.8228 22.9288 71.8228 23.92H73.8228C73.8228 22.7246 73.6404 21.6107 73.2597 20.5904L71.3859 21.2896ZM71.8228 23.92C71.8228 24.9262 71.6714 25.8053 71.3859 26.5704L73.2597 27.2696C73.6409 26.248 73.8228 25.1272 73.8228 23.92H71.8228ZM71.3859 26.5704C71.0965 27.346 70.693 27.9936 70.1808 28.5281L71.6248 29.9119C72.3393 29.1664 72.8824 28.2807 73.2597 27.2696L71.3859 26.5704ZM70.1808 28.5281C69.6687 29.0625 69.0546 29.4777 68.3264 29.7735L69.0792 31.6265C70.0577 31.2289 70.9102 30.6575 71.6248 29.9119L70.1808 28.5281ZM68.3264 29.7735C67.6086 30.0652 66.7855 30.22 65.8428 30.22V32.22C67.0068 32.22 68.0904 32.0282 69.0792 31.6265L68.3264 29.7735ZM65.8428 29.58C66.7945 29.58 67.6698 29.3645 68.4128 28.8752L67.3128 27.2048C66.9625 27.4355 66.4911 27.58 65.8428 27.58V29.58ZM68.4268 28.8658C69.1527 28.37 69.6863 27.6747 70.0438 26.8296L68.2018 26.0504C67.9727 26.592 67.6662 26.9633 67.2989 27.2142L68.4268 28.8658ZM70.0402 26.8381C70.413 25.9789 70.5828 25.0043 70.5828 23.94H68.5828C68.5828 24.7957 68.446 25.4877 68.2055 26.0419L70.0402 26.8381ZM70.5828 23.94C70.5828 22.8703 70.4221 21.8974 70.0638 21.0504L68.2218 21.8296C68.4502 22.3693 68.5828 23.063 68.5828 23.94H70.5828ZM70.0638 21.0504C69.7027 20.1968 69.1544 19.5015 68.4036 19.0188L67.3221 20.7012C67.6912 20.9385 67.9963 21.2965 68.2218 21.8296L70.0638 21.0504ZM68.4036 19.0188C67.6549 18.5375 66.7858 18.32 65.8428 18.32V20.32C66.4731 20.32 66.9507 20.4625 67.3221 20.7012L68.4036 19.0188ZM65.8428 18.32C64.9094 18.32 64.0481 18.5392 63.3021 19.0188L64.3836 20.7012C64.7576 20.4608 65.2296 20.32 65.8428 20.32V18.32ZM63.3021 19.0188C62.5512 19.5015 62.003 20.1968 61.6418 21.0504L63.4838 21.8296C63.7093 21.2965 64.0144 20.9385 64.3836 20.7012L63.3021 19.0188ZM61.6418 21.0504C61.2835 21.8974 61.1228 22.8703 61.1228 23.94H63.1228C63.1228 23.063 63.2555 22.3693 63.4838 21.8296L61.6418 21.0504ZM61.1228 23.94C61.1228 24.9992 61.2844 25.9685 61.6392 26.8234L63.4864 26.0566C63.2546 25.4981 63.1228 24.8008 63.1228 23.94H61.1228ZM61.6418 26.8296C62.002 27.681 62.5465 28.3776 63.2881 28.872L64.3975 27.208C64.0191 26.9557 63.7103 26.5857 63.4838 26.0504L61.6418 26.8296ZM63.3021 28.8812C64.0481 29.3608 64.9094 29.58 65.8428 29.58V27.58C65.2296 27.58 64.7576 27.4392 64.3836 27.1988L63.3021 28.8812ZM78.9008 30.7L78.5244 31.6265L78.5294 31.6285L78.9008 30.7ZM76.7008 29.22L75.9788 29.9119L76.7008 29.22ZM75.2808 26.92L74.3393 27.2573L74.3439 27.2696L75.2808 26.92ZM75.2808 20.96L74.3438 20.6104L74.341 20.6183L75.2808 20.96ZM76.7008 18.68L77.4155 19.3795L77.4228 19.3719L76.7008 18.68ZM78.9008 17.2L78.5294 16.2715L78.5244 16.2735L78.9008 17.2ZM84.6208 17.2L84.9972 16.2735V16.2735L84.6208 17.2ZM88.2408 20.94L89.1777 20.5904V20.5904L88.2408 20.94ZM88.2408 26.92L89.1777 27.2696L88.2408 26.92ZM86.8208 29.22L87.5428 29.9119L86.8208 29.22ZM84.6208 30.7L84.2444 29.7735L84.6208 30.7ZM83.7808 28.04L84.3308 28.8752L84.3378 28.8705L84.3447 28.8658L83.7808 28.04ZM85.0408 26.44L84.1234 26.0419L84.1198 26.0504L85.0408 26.44ZM85.0608 21.44L84.1398 21.8296V21.8296L85.0608 21.44ZM78.4808 21.44L79.4017 21.8296L78.4808 21.44ZM78.4808 26.44L77.5572 26.8234L77.5598 26.8296L78.4808 26.44ZM79.7608 28.04L79.2061 28.872L79.213 28.8767L79.22 28.8812L79.7608 28.04ZM81.7608 30.22C80.8335 30.22 80.008 30.0658 79.2722 29.7715L78.5294 31.6285C79.5269 32.0275 80.6081 32.22 81.7608 32.22V30.22ZM79.2772 29.7735C78.549 29.4777 77.9349 29.0625 77.4228 28.5281L75.9788 29.9119C76.6934 30.6575 77.5459 31.2289 78.5244 31.6265L79.2772 29.7735ZM77.4228 28.5281C76.9106 27.9936 76.5071 27.346 76.2177 26.5704L74.3439 27.2696C74.7212 28.2807 75.2643 29.1664 75.9788 29.9119L77.4228 28.5281ZM76.2222 26.5828C75.9464 25.8127 75.8008 24.9356 75.8008 23.94H73.8008C73.8008 25.1311 73.9752 26.2406 74.3394 27.2572L76.2222 26.5828ZM75.8008 23.94C75.8008 22.9292 75.9469 22.0543 76.2206 21.3017L74.341 20.6183C73.9746 21.6257 73.8008 22.7375 73.8008 23.94H75.8008ZM76.2177 21.3096C76.5065 20.5356 76.9081 19.8978 77.4155 19.3795L75.9861 17.9805C75.2668 18.7155 74.7217 19.5978 74.3439 20.6104L76.2177 21.3096ZM77.4228 19.3719C77.9349 18.8375 78.549 18.4223 79.2772 18.1265L78.5244 16.2735C77.5459 16.6711 76.6934 17.2425 75.9788 17.9881L77.4228 19.3719ZM79.2722 18.1285C80.008 17.8342 80.8335 17.68 81.7608 17.68V15.68C80.6081 15.68 79.5269 15.8725 78.5294 16.2715L79.2722 18.1285ZM81.7608 17.68C82.7035 17.68 83.5265 17.8348 84.2444 18.1265L84.9972 16.2735C84.0084 15.8718 82.9248 15.68 81.7608 15.68V17.68ZM84.2444 18.1265C84.9771 18.4241 85.5936 18.8358 86.1061 19.3595L87.5355 17.9605C86.8213 17.2309 85.9711 16.6692 84.9972 16.2735L84.2444 18.1265ZM86.1061 19.3595C86.6135 19.8778 87.0151 20.5156 87.3039 21.2896L89.1777 20.5904C88.7998 19.5778 88.2548 18.6955 87.5355 17.9605L86.1061 19.3595ZM87.3039 21.2896C87.5898 22.056 87.7408 22.9288 87.7408 23.92H89.7408C89.7408 22.7246 89.5584 21.6107 89.1777 20.5904L87.3039 21.2896ZM87.7408 23.92C87.7408 24.9262 87.5894 25.8053 87.3039 26.5704L89.1777 27.2696C89.5589 26.248 89.7408 25.1272 89.7408 23.92H87.7408ZM87.3039 26.5704C87.0145 27.346 86.611 27.9936 86.0988 28.5281L87.5428 29.9119C88.2572 29.1664 88.8004 28.2807 89.1777 27.2696L87.3039 26.5704ZM86.0988 28.5281C85.5867 29.0625 84.9725 29.4777 84.2444 29.7735L84.9972 31.6265C85.9757 31.2289 86.8282 30.6575 87.5428 29.9119L86.0988 28.5281ZM84.2444 29.7735C83.5265 30.0652 82.7035 30.22 81.7608 30.22V32.22C82.9248 32.22 84.0084 32.0282 84.9972 31.6265L84.2444 29.7735ZM81.7608 29.58C82.7125 29.58 83.5877 29.3645 84.3308 28.8752L83.2308 27.2048C82.8805 27.4355 82.4091 27.58 81.7608 27.58V29.58ZM84.3447 28.8658C85.0707 28.37 85.6042 27.6747 85.9617 26.8296L84.1198 26.0504C83.8907 26.592 83.5842 26.9633 83.2168 27.2142L84.3447 28.8658ZM85.9581 26.8381C86.331 25.9789 86.5008 25.0043 86.5008 23.94H84.5008C84.5008 24.7957 84.3639 25.4877 84.1234 26.0419L85.9581 26.8381ZM86.5008 23.94C86.5008 22.8703 86.3401 21.8974 85.9818 21.0504L84.1398 21.8296C84.3681 22.3693 84.5008 23.063 84.5008 23.94H86.5008ZM85.9818 21.0504C85.6206 20.1968 85.0724 19.5015 84.3215 19.0188L83.24 20.7012C83.6092 20.9385 83.9143 21.2965 84.1398 21.8296L85.9818 21.0504ZM84.3215 19.0188C83.5729 18.5375 82.7038 18.32 81.7608 18.32V20.32C82.3911 20.32 82.8687 20.4625 83.24 20.7012L84.3215 19.0188ZM81.7608 18.32C80.8273 18.32 79.966 18.5392 79.22 19.0188L80.3015 20.7012C80.6755 20.4608 81.1475 20.32 81.7608 20.32V18.32ZM79.22 19.0188C78.4692 19.5015 77.9209 20.1968 77.5598 21.0504L79.4017 21.8296C79.6273 21.2965 79.9324 20.9385 80.3015 20.7012L79.22 19.0188ZM77.5598 21.0504C77.2015 21.8974 77.0408 22.8703 77.0408 23.94H79.0408C79.0408 23.063 79.1734 22.3693 79.4017 21.8296L77.5598 21.0504ZM77.0408 23.94C77.0408 24.9992 77.2023 25.9685 77.5572 26.8234L79.4044 26.0566C79.1726 25.4981 79.0408 24.8008 79.0408 23.94H77.0408ZM77.5598 26.8296C77.92 27.681 78.4645 28.3776 79.2061 28.872L80.3155 27.208C79.9371 26.9557 79.6282 26.5857 79.4017 26.0504L77.5598 26.8296ZM79.22 28.8812C79.966 29.3608 80.8273 29.58 81.7608 29.58V27.58C81.1475 27.58 80.6755 27.4392 80.3015 27.1988L79.22 28.8812ZM91.1387 31H90.1387V32H91.1387V31ZM91.1387 16.9V15.9H90.1387V16.9H91.1387ZM94.2387 16.9H95.2387V15.9H94.2387V16.9ZM94.2387 23.04H93.2387V24.04H94.2387V23.04ZM94.2787 23.04V24.04H94.7067L95.0022 23.7304L94.2787 23.04ZM100.139 16.9V15.9H99.7108L99.4153 16.2096L100.139 16.9ZM103.859 16.9L104.575 17.5974L106.227 15.9H103.859V16.9ZM96.6588 24.3L95.6589 24.2851L95.6213 26.8002L97.3755 24.9974L96.6588 24.3ZM96.6787 22.96L97.4118 22.2798L95.7161 20.4523L95.6789 22.9451L96.6787 22.96ZM104.139 31V32H106.431L104.872 30.3198L104.139 31ZM100.379 31L99.6527 31.6877L99.9486 32H100.379V31ZM94.2787 24.56L95.0048 23.8723L94.7089 23.56H94.2787V24.56ZM94.2387 24.56V23.56H93.2387V24.56H94.2387ZM94.2387 31V32H95.2387V31H94.2387ZM92.1387 31V16.9H90.1387V31H92.1387ZM91.1387 17.9H94.2387V15.9H91.1387V17.9ZM93.2387 16.9V23.04H95.2387V16.9H93.2387ZM94.2387 24.04H94.2787V22.04H94.2387V24.04ZM95.0022 23.7304L100.862 17.5904L99.4153 16.2096L93.5553 22.3496L95.0022 23.7304ZM100.139 17.9H103.859V15.9H100.139V17.9ZM103.142 16.2026L95.942 23.6026L97.3755 24.9974L104.575 17.5974L103.142 16.2026ZM97.6586 24.3149L97.6786 22.9749L95.6789 22.9451L95.6589 24.2851L97.6586 24.3149ZM95.9457 23.6402L103.406 31.6802L104.872 30.3198L97.4118 22.2798L95.9457 23.6402ZM104.139 30H100.379V32H104.139V30ZM101.105 30.3123L95.0048 23.8723L93.5527 25.2477L99.6527 31.6877L101.105 30.3123ZM94.2787 23.56H94.2387V25.56H94.2787V23.56ZM93.2387 24.56V31H95.2387V24.56H93.2387ZM94.2387 30H91.1387V32H94.2387V30ZM110.436 31H109.436V32H110.436V31ZM110.436 16.9V15.9H109.436V16.9H110.436ZM112.736 16.9L113.522 16.2827L113.222 15.9H112.736V16.9ZM120.316 26.56V27.56H122.371L121.102 25.9427L120.316 26.56ZM119.776 26.56H118.776V27.56H119.776V26.56ZM119.776 16.9V15.9H118.776V16.9H119.776ZM122.656 16.9H123.656V15.9H122.656V16.9ZM122.656 31V32H123.656V31H122.656ZM120.376 31L119.588 31.6165L119.889 32H120.376V31ZM112.796 21.32V20.32H110.742L112.008 21.9365L112.796 21.32ZM113.316 21.32H114.316V20.32H113.316V21.32ZM113.316 31V32H114.316V31H113.316ZM111.436 31V16.9H109.436V31H111.436ZM110.436 17.9H112.736V15.9H110.436V17.9ZM111.949 17.5173L119.529 27.1773L121.102 25.9427L113.522 16.2827L111.949 17.5173ZM120.316 25.56H119.776V27.56H120.316V25.56ZM120.776 26.56V16.9H118.776V26.56H120.776ZM119.776 17.9H122.656V15.9H119.776V17.9ZM121.656 16.9V31H123.656V16.9H121.656ZM122.656 30H120.376V32H122.656V30ZM121.163 30.3835L113.583 20.7035L112.008 21.9365L119.588 31.6165L121.163 30.3835ZM112.796 22.32H113.316V20.32H112.796V22.32ZM112.316 21.32V31H114.316V21.32H112.316ZM113.316 30H110.436V32H113.316V30ZM129.174 30.7L128.798 31.6265L128.803 31.6285L129.174 30.7ZM126.974 29.22L126.252 29.9119L126.974 29.22ZM125.554 26.92L124.613 27.2573L124.617 27.2696L125.554 26.92ZM125.554 20.96L124.617 20.6104L124.614 20.6183L125.554 20.96ZM126.974 18.68L127.689 19.3795L127.696 19.3719L126.974 18.68ZM129.174 17.2L128.803 16.2715L128.798 16.2735L129.174 17.2ZM134.894 17.2L135.271 16.2735V16.2735L134.894 17.2ZM138.514 20.94L139.451 20.5904V20.5904L138.514 20.94ZM138.514 26.92L139.451 27.2696L138.514 26.92ZM137.094 29.22L137.816 29.9119L137.094 29.22ZM134.894 30.7L134.518 29.7735L134.894 30.7ZM134.054 28.04L134.604 28.8752L134.611 28.8705L134.618 28.8658L134.054 28.04ZM135.314 26.44L134.397 26.0419L134.393 26.0504L135.314 26.44ZM135.334 21.44L134.413 21.8296V21.8296L135.334 21.44ZM128.754 21.44L129.675 21.8296L128.754 21.44ZM128.754 26.44L127.831 26.8234L127.833 26.8296L128.754 26.44ZM130.034 28.04L129.48 28.872L129.486 28.8767L129.493 28.8812L130.034 28.04ZM132.034 30.22C131.107 30.22 130.281 30.0658 129.546 29.7715L128.803 31.6285C129.8 32.0275 130.882 32.22 132.034 32.22V30.22ZM129.551 29.7735C128.822 29.4777 128.208 29.0625 127.696 28.5281L126.252 29.9119C126.967 30.6575 127.819 31.2289 128.798 31.6265L129.551 29.7735ZM127.696 28.5281C127.184 27.9936 126.781 27.346 126.491 26.5704L124.617 27.2696C124.995 28.2807 125.538 29.1664 126.252 29.9119L127.696 28.5281ZM126.496 26.5828C126.22 25.8127 126.074 24.9356 126.074 23.94H124.074C124.074 25.1311 124.249 26.2406 124.613 27.2572L126.496 26.5828ZM126.074 23.94C126.074 22.9292 126.22 22.0543 126.494 21.3017L124.614 20.6183C124.248 21.6257 124.074 22.7375 124.074 23.94H126.074ZM126.491 21.3096C126.78 20.5356 127.182 19.8978 127.689 19.3795L126.26 17.9805C125.54 18.7155 124.995 19.5978 124.617 20.6104L126.491 21.3096ZM127.696 19.3719C128.208 18.8375 128.822 18.4223 129.551 18.1265L128.798 16.2735C127.819 16.6711 126.967 17.2425 126.252 17.9881L127.696 19.3719ZM129.546 18.1285C130.281 17.8342 131.107 17.68 132.034 17.68V15.68C130.882 15.68 129.8 15.8725 128.803 16.2715L129.546 18.1285ZM132.034 17.68C132.977 17.68 133.8 17.8348 134.518 18.1265L135.271 16.2735C134.282 15.8718 133.198 15.68 132.034 15.68V17.68ZM134.518 18.1265C135.251 18.4241 135.867 18.8358 136.38 19.3595L137.809 17.9605C137.095 17.2309 136.245 16.6692 135.271 16.2735L134.518 18.1265ZM136.38 19.3595C136.887 19.8778 137.288 20.5156 137.577 21.2896L139.451 20.5904C139.073 19.5778 138.528 18.6955 137.809 17.9605L136.38 19.3595ZM137.577 21.2896C137.863 22.056 138.014 22.9288 138.014 23.92H140.014C140.014 22.7246 139.832 21.6107 139.451 20.5904L137.577 21.2896ZM138.014 23.92C138.014 24.9262 137.863 25.8053 137.577 26.5704L139.451 27.2696C139.832 26.248 140.014 25.1272 140.014 23.92H138.014ZM137.577 26.5704C137.288 27.346 136.884 27.9936 136.372 28.5281L137.816 29.9119C138.531 29.1664 139.074 28.2807 139.451 27.2696L137.577 26.5704ZM136.372 28.5281C135.86 29.0625 135.246 29.4777 134.518 29.7735L135.271 31.6265C136.249 31.2289 137.102 30.6575 137.816 29.9119L136.372 28.5281ZM134.518 29.7735C133.8 30.0652 132.977 30.22 132.034 30.22V32.22C133.198 32.22 134.282 32.0282 135.271 31.6265L134.518 29.7735ZM132.034 29.58C132.986 29.58 133.861 29.3645 134.604 28.8752L133.504 27.2048C133.154 27.4355 132.682 27.58 132.034 27.58V29.58ZM134.618 28.8658C135.344 28.37 135.878 27.6747 136.235 26.8296L134.393 26.0504C134.164 26.592 133.858 26.9633 133.49 27.2142L134.618 28.8658ZM136.232 26.8381C136.604 25.9789 136.774 25.0043 136.774 23.94H134.774C134.774 24.7957 134.637 25.4877 134.397 26.0419L136.232 26.8381ZM136.774 23.94C136.774 22.8703 136.614 21.8974 136.255 21.0504L134.413 21.8296C134.642 22.3693 134.774 23.063 134.774 23.94H136.774ZM136.255 21.0504C135.894 20.1968 135.346 19.5015 134.595 19.0188L133.513 20.7012C133.883 20.9385 134.188 21.2965 134.413 21.8296L136.255 21.0504ZM134.595 19.0188C133.846 18.5375 132.977 18.32 132.034 18.32V20.32C132.665 20.32 133.142 20.4625 133.513 20.7012L134.595 19.0188ZM132.034 18.32C131.101 18.32 130.239 18.5392 129.493 19.0188L130.575 20.7012C130.949 20.4608 131.421 20.32 132.034 20.32V18.32ZM129.493 19.0188C128.743 19.5015 128.194 20.1968 127.833 21.0504L129.675 21.8296C129.901 21.2965 130.206 20.9385 130.575 20.7012L129.493 19.0188ZM127.833 21.0504C127.475 21.8974 127.314 22.8703 127.314 23.94H129.314C129.314 23.063 129.447 22.3693 129.675 21.8296L127.833 21.0504ZM127.314 23.94C127.314 24.9992 127.476 25.9685 127.831 26.8234L129.678 26.0566C129.446 25.4981 129.314 24.8008 129.314 23.94H127.314ZM127.833 26.8296C128.193 27.681 128.738 28.3776 129.48 28.872L130.589 27.208C130.211 26.9557 129.902 26.5857 129.675 26.0504L127.833 26.8296ZM129.493 28.8812C130.239 29.3608 131.101 29.58 132.034 29.58V27.58C131.421 27.58 130.949 27.4392 130.575 27.1988L129.493 28.8812ZM144.981 31L144.039 31.3354L144.276 32H144.981V31ZM139.961 16.9V15.9H138.544L139.019 17.2354L139.961 16.9ZM143.141 16.9L144.089 16.5812L143.86 15.9H143.141V16.9ZM146.801 27.78V28.78H148.193L147.749 27.4612L146.801 27.78ZM145.941 27.78L144.999 27.4456L144.525 28.78H145.941V27.78ZM149.801 16.9V15.9H149.095L148.859 16.5656L149.801 16.9ZM152.041 16.9L152.988 16.578L152.757 15.9H152.041V16.9ZM155.741 27.78V28.78H157.137L156.688 27.458L155.741 27.78ZM155.001 27.78L154.055 27.4565L153.602 28.78H155.001V27.78ZM158.721 16.9V15.9H158.006L157.775 16.5765L158.721 16.9ZM161.721 16.9L162.662 17.2378L163.142 15.9H161.721V16.9ZM156.661 31V32H157.365L157.602 31.3378L156.661 31ZM154.141 31L153.198 31.3331L153.434 32H154.141V31ZM150.601 20.98V19.98H149.187L149.658 21.3131L150.601 20.98ZM151.081 20.98L152.023 21.3165L152.5 19.98H151.081V20.98ZM147.501 31V32H148.206L148.443 31.3365L147.501 31ZM145.923 30.6646L140.903 16.5646L139.019 17.2354L144.039 31.3354L145.923 30.6646ZM139.961 17.9H143.141V15.9H139.961V17.9ZM142.193 17.2188L145.853 28.0988L147.749 27.4612L144.089 16.5812L142.193 17.2188ZM146.801 26.78H145.941V28.78H146.801V26.78ZM146.884 28.1144L150.744 17.2344L148.859 16.5656L144.999 27.4456L146.884 28.1144ZM149.801 17.9H152.041V15.9H149.801V17.9ZM151.094 17.222L154.794 28.102L156.688 27.458L152.988 16.578L151.094 17.222ZM155.741 26.78H155.001V28.78H155.741V26.78ZM155.947 28.1035L159.667 17.2235L157.775 16.5765L154.055 27.4565L155.947 28.1035ZM158.721 17.9H161.721V15.9H158.721V17.9ZM160.78 16.5622L155.72 30.6622L157.602 31.3378L162.662 17.2378L160.78 16.5622ZM156.661 30H154.141V32H156.661V30ZM155.084 30.6669L151.544 20.6469L149.658 21.3131L153.198 31.3331L155.084 30.6669ZM150.601 21.98H151.081V19.98H150.601V21.98ZM150.139 20.6435L146.559 30.6635L148.443 31.3365L152.023 21.3165L150.139 20.6435ZM147.501 30H144.981V32H147.501V30Z" fill="#127854" fill-opacity="0.6" mask="url(#path-2-inside-1_35_135)"/>
</svg>
