<svg width="27" height="147" viewBox="0 0 27 147" fill="none" xmlns="http://www.w3.org/2000/svg">
<path d="M21.101 103.656C20.9367 103.469 20.7335 103.319 20.5052 103.217C20.2768 103.114 20.0287 103.061 19.7776 103.061C19.5265 103.061 19.2783 103.114 19.05 103.217C18.8216 103.319 18.6184 103.469 18.4542 103.656C17.8358 104.256 17.2175 104.864 16.6067 105.479C16.5493 105.556 16.464 105.608 16.3685 105.624C16.273 105.641 16.1747 105.621 16.094 105.568C15.6943 105.353 15.2645 105.182 14.8799 104.945C13.1151 103.821 11.5509 102.419 10.25 100.795C9.57073 100.008 9.00953 99.13 8.58346 98.1868C8.53712 98.1086 8.52151 98.0164 8.53957 97.9277C8.55763 97.839 8.60811 97.7598 8.68149 97.7051C9.29982 97.1123 9.90307 96.512 10.5139 95.9043C10.7132 95.7416 10.8736 95.5377 10.9837 95.3072C11.0938 95.0766 11.1509 94.8251 11.1509 94.5704C11.1509 94.3157 11.0938 94.0642 10.9837 93.8336C10.8736 93.6031 10.7132 93.3992 10.5139 93.2365L9.05852 91.8062C8.56084 91.3171 8.06315 90.8206 7.55039 90.3241C7.3848 90.1396 7.18116 89.9918 6.95299 89.8906C6.72482 89.7894 6.47734 89.737 6.227 89.737C5.97666 89.737 5.72918 89.7894 5.50101 89.8906C5.27284 89.9918 5.0692 90.1396 4.90361 90.3241C4.27774 90.9244 3.68202 91.5468 3.04107 92.1397C2.47677 92.6627 2.13921 93.3793 2.0985 94.1406C2.04478 95.3891 2.27133 96.6339 2.76208 97.7866C3.7026 100.183 5.0572 102.402 6.76615 104.345C9.01548 107 11.815 109.152 14.9779 110.659C16.3835 111.382 17.9215 111.823 19.5023 111.956C20.0319 112.014 20.568 111.948 21.0663 111.762C21.5645 111.577 22.0107 111.277 22.3678 110.889C22.8956 110.303 23.4914 109.77 24.0569 109.214C24.2525 109.05 24.4095 108.847 24.5173 108.618C24.625 108.389 24.6808 108.14 24.6808 107.887C24.6808 107.635 24.625 107.386 24.5173 107.157C24.4095 106.928 24.2525 106.724 24.0569 106.561C23.0816 105.593 22.0963 104.624 21.101 103.656Z" fill="#004167"/>
<path d="M25.0144 99.4244C23.0511 94.9171 19.3858 91.3336 14.7893 89.4274C14.6042 89.3595 14.3993 89.3657 14.2188 89.4447C14.0383 89.5237 13.8966 89.6692 13.8241 89.8498C13.7846 89.9402 13.7638 90.0374 13.763 90.1358C13.7621 90.2342 13.7812 90.3317 13.8191 90.4228C13.857 90.5138 13.9129 90.5966 13.9837 90.6661C14.0545 90.7357 14.1387 90.7907 14.2313 90.828C18.4683 92.5872 21.8467 95.8915 23.6571 100.047C23.7381 100.223 23.8859 100.361 24.069 100.432C24.2522 100.502 24.4561 100.5 24.6374 100.425C24.7302 100.385 24.8139 100.327 24.8835 100.255C24.953 100.182 25.007 100.097 25.0422 100.003C25.0774 99.9099 25.0931 99.8106 25.0883 99.7111C25.0835 99.6116 25.0584 99.5141 25.0144 99.4244Z" fill="#004167"/>
<path d="M13.8392 94.852C16.4074 95.9151 18.4562 97.9153 19.555 100.432C19.6133 100.556 19.7055 100.662 19.8213 100.738C19.9371 100.814 20.072 100.857 20.211 100.862C20.3129 100.861 20.4132 100.839 20.5051 100.795C20.6785 100.712 20.8127 100.566 20.8801 100.388C20.9474 100.21 20.9428 100.014 20.8671 99.8394C19.6216 96.9819 17.2969 94.7105 14.3821 93.5033C14.2026 93.4406 14.0056 93.4471 13.8308 93.5213C13.6559 93.5956 13.5161 93.7321 13.4395 93.9034C13.3686 94.0817 13.3706 94.2799 13.4451 94.4567C13.5196 94.6335 13.6608 94.7752 13.8392 94.852Z" fill="#004167"/>
<path d="M23.2598 130.475H6.01098C5.24853 130.475 4.51731 130.773 3.97818 131.303C3.43905 131.832 3.13617 132.551 3.13617 133.3V143.895C3.13617 144.644 3.43905 145.363 3.97818 145.893C4.51731 146.423 5.24853 146.72 6.01098 146.72H23.2598C24.0223 146.72 24.7535 146.423 25.2926 145.893C25.8318 145.363 26.1347 144.644 26.1347 143.895V133.3C26.1347 132.551 25.8318 131.832 25.2926 131.303C24.7535 130.773 24.0223 130.475 23.2598 130.475ZM10.1076 140.865L7.23277 143.69C7.09258 143.785 6.92264 143.828 6.75323 143.811C6.58382 143.795 6.42593 143.719 6.30771 143.599C6.1895 143.479 6.11862 143.321 6.10772 143.154C6.09681 142.987 6.14657 142.822 6.24815 142.687L9.12296 139.862C9.25762 139.73 9.43978 139.657 9.62965 139.657C9.81952 139.657 10.0017 139.73 10.1363 139.862C10.2019 139.93 10.2531 140.009 10.2871 140.096C10.3212 140.183 10.3373 140.276 10.3347 140.369C10.332 140.463 10.3106 140.554 10.2716 140.639C10.2326 140.725 10.1769 140.801 10.1076 140.865ZM14.6354 141.776C14.4675 141.776 14.3047 141.719 14.1754 141.614L6.26971 135.257C6.19025 135.2 6.12343 135.128 6.07337 135.045C6.02331 134.962 5.99108 134.87 5.97865 134.774C5.96623 134.679 5.97388 134.582 6.00113 134.489C6.02838 134.396 6.07465 134.31 6.1371 134.236C6.19954 134.161 6.27684 134.1 6.36421 134.056C6.45159 134.012 6.5472 133.986 6.64514 133.98C6.74309 133.974 6.84129 133.987 6.9337 134.02C7.02612 134.052 7.11078 134.103 7.18247 134.169L14.6354 140.159L22.0596 134.169C22.1327 134.11 22.2169 134.066 22.3074 134.039C22.398 134.012 22.493 134.003 22.5872 134.012C22.6813 134.021 22.7727 134.048 22.8561 134.092C22.9395 134.136 23.0132 134.196 23.073 134.268C23.1921 134.413 23.2484 134.598 23.2296 134.783C23.2107 134.968 23.1183 135.138 22.9724 135.257L15.0666 141.614C14.945 141.713 14.7934 141.77 14.6354 141.776ZM23.0442 143.69C22.9096 143.822 22.7274 143.896 22.5375 143.896C22.3477 143.896 22.1655 143.822 22.0309 143.69L19.1561 140.865C19.0887 140.799 19.0352 140.721 18.9987 140.635C18.9622 140.549 18.9435 140.457 18.9435 140.363C18.9435 140.27 18.9622 140.178 18.9987 140.092C19.0352 140.006 19.0887 139.928 19.1561 139.862C19.2907 139.73 19.4729 139.657 19.6627 139.657C19.8526 139.657 20.0348 139.73 20.1694 139.862L23.0442 142.687C23.1116 142.753 23.1651 142.831 23.2016 142.917C23.238 143.003 23.2568 143.095 23.2568 143.189C23.2568 143.282 23.238 143.374 23.2016 143.46C23.1651 143.546 23.1116 143.625 23.0442 143.69Z" fill="#004167"/>
<path d="M11.4993 55.0034C12.9648 55.0034 14.1529 53.8358 14.1529 52.3955C14.1529 50.9552 12.9648 49.7876 11.4993 49.7876C10.0337 49.7876 8.84558 50.9552 8.84558 52.3955C8.84558 53.8358 10.0337 55.0034 11.4993 55.0034Z" fill="#004167"/>
<path d="M11.4992 41.0945C8.44945 41.0945 5.52457 42.2852 3.36805 44.4045C1.21152 46.5239 0 49.3983 0 52.3955C0 57.7679 5.92653 64.2181 10.9066 68.6863L11.5169 69.234L12.1096 68.669C17.6204 63.4531 22.9985 57.9156 22.9985 52.3955C22.9985 50.9115 22.7011 49.4419 22.1232 48.0708C21.5453 46.6997 20.6982 45.4539 19.6304 44.4045C18.5626 43.3551 17.295 42.5227 15.8998 41.9548C14.5047 41.3868 13.0093 41.0945 11.4992 41.0945ZM11.4992 56.7421C10.6245 56.7421 9.76939 56.4872 9.04207 56.0096C8.31475 55.5319 7.74787 54.8531 7.41312 54.0589C7.07837 53.2647 6.99079 52.3907 7.16144 51.5476C7.3321 50.7044 7.75332 49.93 8.37186 49.3221C8.9904 48.7142 9.77847 48.3002 10.6364 48.1325C11.4943 47.9648 12.3836 48.0509 13.1918 48.3798C13.9999 48.7088 14.6907 49.2659 15.1767 49.9807C15.6626 50.6955 15.922 51.5359 15.922 52.3955C15.922 53.5483 15.4561 54.6539 14.6266 55.469C13.7972 56.2841 12.6722 56.7421 11.4992 56.7421Z" fill="#004167"/>
<path d="M21.8121 6.11646C20.0724 7.23031 18.1561 8.05144 16.1417 8.54609C16.2064 9.3795 16.2423 10.2341 16.2423 11.0817C16.2423 12.2047 16.1848 13.3347 16.077 14.4224C17.9864 14.8868 19.81 15.6423 21.4815 16.6613C22.416 15.0664 22.9352 13.2693 22.9929 11.4296C23.0505 9.59004 22.6449 7.76492 21.8121 6.11646Z" fill="#004167"/>
<path d="M11.4992 7.57139C12.4822 7.56863 13.4631 7.48355 14.4314 7.31711C13.9068 2.89575 12.5197 0.218933 11.4992 0.218933C10.4787 0.218933 9.08445 2.89575 8.55981 7.31711C9.53047 7.48385 10.5138 7.56893 11.4992 7.57139Z" fill="#004167"/>
<path d="M8.423 8.86389C8.37269 9.57018 8.34393 10.3118 8.34393 11.0816C8.34393 12.1623 8.40144 13.1652 8.48768 14.1116C10.4836 13.7821 12.5215 13.7821 14.5174 14.1116C14.6036 13.1652 14.6611 12.1623 14.6611 11.0816C14.6611 10.3118 14.6611 9.57018 14.5892 8.86389C13.5702 9.03004 12.5391 9.11508 11.5061 9.11817C10.473 9.1189 9.44159 9.03384 8.423 8.86389Z" fill="#004167"/>
<path d="M21.0362 4.78855C19.3431 2.31461 16.7237 0.598476 13.7488 0.0140381C14.8772 1.49724 15.6318 4.0752 15.9911 6.99923C17.7821 6.53164 19.4853 5.7853 21.0362 4.78855Z" fill="#004167"/>
<path d="M11.4991 15.4183C10.5504 15.421 9.60343 15.499 8.66748 15.6514C9.2568 19.5924 10.536 21.9444 11.4991 21.9444C12.4621 21.9444 13.7342 19.5924 14.3307 15.6514C13.3946 15.4996 12.4478 15.4216 11.4991 15.4183Z" fill="#004167"/>
<path d="M2.39337 17.9609C4.08194 20.1453 6.52141 21.6515 9.25675 22.1986C8.23623 20.8496 7.51755 18.6036 7.10072 16.0115C5.44124 16.4263 3.85445 17.0834 2.39337 17.9609Z" fill="#004167"/>
<path d="M13.7488 22.1633C16.4816 21.6147 18.9182 20.1086 20.605 17.9256C19.1397 17.0397 17.5484 16.3732 15.8833 15.948C15.488 18.5683 14.7765 20.8143 13.7488 22.1633Z" fill="#004167"/>
<path d="M6.77032 11.0816C6.77032 10.2341 6.7703 9.37949 6.86373 8.54608C4.84686 8.04873 2.92819 7.22526 1.18618 6.10938C0.353303 7.76033 -0.052274 9.58772 0.00539264 11.4296C0.0630592 13.2714 0.582182 15.0709 1.51677 16.6684C3.18959 15.6454 5.01583 14.8874 6.92843 14.4224C6.82063 13.3347 6.77032 12.2046 6.77032 11.0816Z" fill="#004167"/>
<path d="M9.25694 0C6.2797 0.587908 3.65996 2.30936 1.96954 4.78863C3.51568 5.78628 5.21396 6.53496 7.00029 7.00638C7.374 4.08235 8.12862 1.4832 9.25694 0Z" fill="#004167"/>
</svg>
