<svg width="23" height="23" viewBox="0 0 23 23" fill="none" xmlns="http://www.w3.org/2000/svg">
<path d="M21.8121 6.11646C20.0724 7.23031 18.1561 8.05144 16.1417 8.54609C16.2064 9.3795 16.2423 10.2341 16.2423 11.0817C16.2423 12.2047 16.1848 13.3347 16.077 14.4224C17.9864 14.8868 19.81 15.6423 21.4815 16.6613C22.416 15.0664 22.9352 13.2693 22.9929 11.4296C23.0505 9.59004 22.6449 7.76492 21.8121 6.11646Z" fill="#004167"/>
<path d="M11.4992 7.57139C12.4822 7.56863 13.4631 7.48355 14.4314 7.31711C13.9068 2.89575 12.5197 0.218933 11.4992 0.218933C10.4787 0.218933 9.08445 2.89575 8.55981 7.31711C9.53047 7.48385 10.5138 7.56893 11.4992 7.57139Z" fill="#004167"/>
<path d="M8.423 8.86389C8.37269 9.57018 8.34393 10.3118 8.34393 11.0816C8.34393 12.1623 8.40144 13.1652 8.48768 14.1116C10.4836 13.7821 12.5215 13.7821 14.5174 14.1116C14.6036 13.1652 14.6611 12.1623 14.6611 11.0816C14.6611 10.3118 14.6611 9.57018 14.5892 8.86389C13.5702 9.03004 12.5391 9.11508 11.5061 9.11817C10.473 9.1189 9.44159 9.03384 8.423 8.86389Z" fill="#004167"/>
<path d="M21.0362 4.78855C19.3431 2.31461 16.7237 0.598476 13.7488 0.0140381C14.8772 1.49724 15.6318 4.0752 15.9911 6.99923C17.7821 6.53164 19.4853 5.7853 21.0362 4.78855Z" fill="#004167"/>
<path d="M11.4991 15.4183C10.5504 15.421 9.60343 15.499 8.66748 15.6514C9.2568 19.5924 10.536 21.9444 11.4991 21.9444C12.4621 21.9444 13.7342 19.5924 14.3307 15.6514C13.3946 15.4996 12.4478 15.4216 11.4991 15.4183Z" fill="#004167"/>
<path d="M2.39337 17.9609C4.08194 20.1453 6.52141 21.6515 9.25675 22.1986C8.23623 20.8496 7.51755 18.6036 7.10072 16.0115C5.44124 16.4263 3.85445 17.0834 2.39337 17.9609Z" fill="#004167"/>
<path d="M13.7488 22.1633C16.4816 21.6147 18.9182 20.1086 20.605 17.9256C19.1397 17.0397 17.5484 16.3732 15.8833 15.948C15.488 18.5683 14.7765 20.8143 13.7488 22.1633Z" fill="#004167"/>
<path d="M6.77032 11.0816C6.77032 10.2341 6.7703 9.37949 6.86373 8.54608C4.84686 8.04873 2.92819 7.22526 1.18618 6.10938C0.353303 7.76033 -0.052274 9.58772 0.00539264 11.4296C0.0630592 13.2714 0.582182 15.0709 1.51677 16.6684C3.18959 15.6454 5.01583 14.8874 6.92843 14.4224C6.82063 13.3347 6.77032 12.2046 6.77032 11.0816Z" fill="#004167"/>
<path d="M9.25694 0C6.2797 0.587908 3.65996 2.30936 1.96954 4.78863C3.51568 5.78628 5.21396 6.53496 7.00029 7.00638C7.374 4.08235 8.12862 1.4832 9.25694 0Z" fill="#004167"/>
</svg>
